<svg width="50" height="50" viewBox="0 0 50 50" fill="none" xmlns="http://www.w3.org/2000/svg">
<g clip-path="url(#clip0_2216_292)">
<path d="M24.1562 19.0642C24.482 19.3736 25.0237 19.3111 25.2713 18.9376L30.1461 11.5806C30.3696 11.2433 30.2773 10.7886 29.9401 10.5651C29.6032 10.3419 29.1485 10.4343 28.925 10.7711L24.532 17.401L22.091 15.0832C21.7976 14.8048 21.3341 14.817 21.0553 15.1103C20.7768 15.4037 20.789 15.8671 21.0824 16.1456C21.082 16.1456 24.1536 19.062 24.1562 19.0642Z" fill="#F5DD00"/>
<path d="M24.656 30.2361C24.796 30.3002 24.9508 30.3341 25.105 30.3341H25.1111C25.2678 30.3333 25.425 30.2975 25.5654 30.2304C36.7028 24.9336 38.5903 13.5056 38.9031 10.1292C38.9748 9.35822 38.5407 8.64029 37.8232 8.34275C35.6061 7.42226 34.0989 5.36385 33.8898 2.97089C33.8254 2.23427 33.1959 1.66016 32.4543 1.66016H32.4456L17.4408 1.74828C16.6844 1.75247 16.0698 2.32735 16.0119 3.08533C15.8272 5.47905 14.3422 7.55234 12.1361 8.4961C11.4258 8.79975 11.0024 9.52149 11.0833 10.2921C11.4357 13.6646 13.4572 25.0702 24.656 30.2361ZM12.7121 9.84269C15.4171 8.68607 17.2394 6.14663 17.471 3.21274L32.4326 3.125C32.6985 6.0524 34.5467 8.56858 37.2616 9.69544C37.3829 9.74618 37.4566 9.86596 37.4447 9.99413C37.151 13.1584 35.3936 23.8278 25.1023 28.8277C14.7519 23.9494 12.8708 13.3007 12.5397 10.1399C12.5264 10.0121 12.5958 9.89266 12.7121 9.84269Z" fill="#F5DD00"/>
<path d="M14.5408 13.9034C14.6293 14.2291 15.0425 14.5274 15.44 14.418C15.8298 14.3104 16.0606 13.9095 15.9546 13.5192C15.768 12.8318 15.6112 12.1349 15.488 11.4444C17.4778 10.1478 18.9544 8.21259 19.6789 5.95238L30.2563 5.8902C31.007 8.14125 32.5062 10.0597 34.5112 11.3326C34.3963 12.025 34.2476 12.7242 34.0687 13.4143C33.9672 13.8061 34.2026 14.2059 34.5939 14.3073C34.9861 14.4088 35.3855 14.1734 35.487 13.7817C35.6968 12.9714 35.8677 12.149 35.9943 11.3372C36.0653 10.8836 35.8578 10.4377 35.4664 10.2012C33.5987 9.07318 32.2182 7.30354 31.5792 5.21843C31.4354 4.7496 30.9933 4.42383 30.5027 4.42383H30.4958L19.4217 4.48868C18.9281 4.49173 18.4864 4.82399 18.3479 5.29625C17.7337 7.38861 16.3738 9.17427 14.5195 10.3244C14.1308 10.5651 13.929 11.0133 14.0049 11.4665C14.1414 12.2764 14.3215 13.0962 14.5408 13.9034Z" fill="#F5DD00"/>
<path d="M34.0066 16.0744C33.6327 15.9195 33.2047 16.098 33.0502 16.4719C31.3576 20.5742 28.6782 23.6931 25.084 25.7458C21.4619 23.7328 18.7436 20.6402 17.0033 16.5508C16.8446 16.1789 16.4143 16.0057 16.0424 16.164C15.6701 16.3223 15.4969 16.7526 15.6552 17.1246C17.5545 21.587 20.5468 24.9512 24.5488 27.1229C24.7174 27.2148 24.902 27.2602 25.0863 27.2602C25.2751 27.2602 25.4636 27.2126 25.6352 27.1168C29.6071 24.9008 32.5574 21.5073 34.4044 17.0303C34.5589 16.6565 34.3808 16.2285 34.0066 16.0744Z" fill="#F5DD00"/>
<path d="M4.6993 39.1377C3.27069 39.1377 2.10797 40.3 2.10797 41.729C2.10797 43.158 3.27069 44.3203 4.6993 44.3203C6.12828 44.3203 7.291 43.158 7.291 41.729C7.291 40.3 6.12866 39.1377 4.6993 39.1377ZM4.6993 42.8555C4.07826 42.8555 3.57281 42.3504 3.57281 41.729C3.57281 41.108 4.07826 40.6025 4.6993 40.6025C5.32071 40.6025 5.82616 41.108 5.82616 41.729C5.82616 42.3504 5.32071 42.8555 4.6993 42.8555Z" fill="#F5DD00"/>
<path d="M49.4747 31.9675C48.5359 30.5881 46.6457 30.2226 45.2614 31.1527L35.6865 37.561L33.6426 37.4462L33.5903 36.9228C33.3866 34.8731 31.8199 33.2401 29.7806 32.9517C29.7676 32.9498 29.755 32.9482 29.742 32.9471L19.4248 32.043C19.0758 31.9885 17.9584 31.6676 14.8884 29.9068C13.2927 28.9916 11.4948 28.4751 9.66835 28.4049V26.4888C9.66835 25.5271 8.88633 24.7451 7.92465 24.7451H1.7437C0.782394 24.7451 0 25.5275 0 26.4888V45.3605C0 46.3218 0.782394 47.1042 1.7437 47.1042H7.92465C8.88595 47.1042 9.66835 46.3218 9.66835 45.3605V44.8406L18.6871 48.2559C18.7069 48.2635 19.4393 48.5374 20.7859 48.4104C20.7897 48.41 35.7712 46.2501 35.7712 46.2501C35.775 46.2497 35.7784 46.249 35.7822 46.2482C37.0624 46.0441 38.2698 45.5028 39.2742 44.6838C39.2834 44.6762 39.2921 44.6685 39.3009 44.6609L48.9792 35.9561C50.1198 34.9433 50.333 33.2286 49.4747 31.9675ZM48.003 34.864L38.335 43.5596C37.5347 44.2085 36.5742 44.6376 35.5564 44.8009L20.5822 46.9596C20.5788 46.96 20.5738 46.9608 20.5692 46.9615C20.5669 46.9619 20.5643 46.9623 20.562 46.9627C20.1141 47.0333 19.6476 47.0035 19.175 46.8742L9.66835 43.2742V34.9098C9.66835 34.505 9.34028 34.1773 8.93593 34.1773C8.53119 34.1773 8.2035 34.505 8.2035 34.9098V45.3605C8.2035 45.5142 8.07838 45.6394 7.92465 45.6394H1.7437C1.58997 45.6394 1.46484 45.5142 1.46484 45.3605V26.4888C1.46484 26.3351 1.58997 26.21 1.7437 26.21H7.92465C8.07838 26.21 8.2035 26.3351 8.2035 26.4888V31.6013C8.2035 32.006 8.53157 32.3337 8.93593 32.3337C9.34066 32.3337 9.66835 32.0056 9.66835 31.6013V29.8713C11.2396 29.9407 12.7853 30.3893 14.1594 31.1778C17.8623 33.3015 18.8965 33.448 19.2364 33.496C19.2493 33.4979 19.2619 33.4991 19.2749 33.5006L29.5933 34.4047C30.9536 34.6057 31.9965 35.6983 32.1327 37.0677L32.1716 37.458L18.3575 38.3109C18.3479 38.3102 18.3384 38.3094 18.33 38.3087C17.8822 38.2682 17.4778 38.0565 17.1905 37.7124C16.9315 37.4015 16.4696 37.3596 16.1591 37.619C15.8482 37.878 15.8062 38.3399 16.0656 38.6505C16.6031 39.2951 17.3614 39.6808 18.1995 39.7678C18.652 39.8151 32.9773 38.8759 32.9773 38.8759L35.849 39.0373C36.0077 39.0464 36.1652 39.0029 36.2972 38.9144L46.0773 32.3692C46.7956 31.8866 47.7764 32.0758 48.2635 32.7915C48.7087 33.4461 48.5981 34.3356 48.003 34.864Z" fill="#F5DD00"/>
</g>
<defs>
<clipPath id="clip0_2216_292">
<rect width="50" height="50" fill="white"/>
</clipPath>
</defs>
</svg>
