<svg width="49" height="48" viewBox="0 0 49 48" fill="none" xmlns="http://www.w3.org/2000/svg">
<g clip-path="url(#clip0_2216_207)">
<path d="M25.6281 21.2691L24.499 22.1553C24.3241 22.2978 24.0617 22.2661 23.9185 22.092C23.7754 21.918 23.8072 21.6568 23.9821 21.5144C23.9821 21.5144 23.9821 21.5144 23.9901 21.5144L24.0299 21.4828C22.6622 21.91 21.9068 23.3581 22.3361 24.719C22.4634 25.1147 22.6781 25.4708 22.9723 25.7714C23.1313 25.9376 23.1234 26.1987 22.9643 26.357C22.8053 26.5073 22.5508 26.5073 22.3918 26.357C21.0559 25.0276 21.0559 22.8754 22.3918 21.5461C22.8928 21.0476 23.5448 20.7152 24.2446 20.5965L23.9821 20.3908C23.7993 20.2484 23.7674 19.9952 23.9106 19.8132C24.0537 19.6312 24.3082 19.5995 24.4911 19.742C24.4911 19.742 24.4911 19.742 24.499 19.742L25.6281 20.6282C25.811 20.7706 25.8349 21.0317 25.6997 21.2058C25.6759 21.2296 25.66 21.2454 25.6281 21.2691Z" fill="#F5DD00"/>
<path d="M24.8092 29.4824C21.7239 29.4824 19.2271 26.9978 19.2271 23.9277C19.2271 20.8576 21.7239 18.373 24.8092 18.373C27.8945 18.373 30.3913 20.8576 30.3913 23.9277C30.3833 26.9899 27.8865 29.4745 24.8092 29.4824ZM24.8092 19.1959C22.1851 19.1959 20.0541 21.3165 20.0541 23.9277C20.0541 26.5389 22.1851 28.6595 24.8092 28.6595C27.4333 28.6595 29.5643 26.5389 29.5643 23.9277C29.5564 21.3165 27.4333 19.2039 24.8092 19.1959Z" fill="#F5DD00"/>
<path d="M33.9378 25.5814H32.2997C32.1089 26.4518 31.7669 27.2747 31.2819 28.0264L32.4428 29.1817C32.6019 29.3399 32.6019 29.601 32.4428 29.7672L30.6776 31.5238C30.5185 31.6821 30.2561 31.6821 30.0891 31.5238L28.9282 30.3686C28.1728 30.8512 27.3458 31.1915 26.4711 31.3814V33.0114C26.4711 33.2409 26.2882 33.4229 26.0576 33.4229H23.5608C23.3302 33.4229 23.1473 33.2409 23.1473 33.0114V31.3814C22.2726 31.1915 21.4456 30.8512 20.6902 30.3686L19.5293 31.5238C19.3702 31.6821 19.1078 31.6821 18.9408 31.5238L17.1835 29.7672C17.0245 29.6089 17.0245 29.3478 17.1835 29.1817L18.3445 28.0264C17.8594 27.2747 17.5175 26.4518 17.3266 25.5814H15.6806C15.45 25.5814 15.2672 25.3994 15.2672 25.1699V22.6853C15.2672 22.4559 15.45 22.2739 15.6806 22.2739H17.3187C17.5095 21.4035 17.8515 20.5806 18.3365 19.8289L17.1756 18.6736C17.0165 18.5154 17.0165 18.2542 17.1756 18.0881L18.9488 16.3315C19.1078 16.1732 19.3702 16.1732 19.5372 16.3315L20.6982 17.4867C21.4536 17.004 22.2806 16.6638 23.1552 16.4739V14.8439C23.1552 14.6144 23.3381 14.4324 23.5687 14.4324H26.0656C26.2962 14.4324 26.4791 14.6144 26.4791 14.8439V16.4739C27.3537 16.6638 28.1807 17.004 28.9361 17.4867L30.0971 16.3315C30.2561 16.1732 30.5185 16.1732 30.6855 16.3315L32.4508 18.0881C32.6098 18.2463 32.6098 18.5074 32.4508 18.6736L31.2898 19.8289C31.7749 20.5806 32.1168 21.4035 32.3077 22.2739H33.9457C34.1763 22.2739 34.3592 22.4559 34.3592 22.6853V25.1699C34.3512 25.3994 34.1684 25.5814 33.9378 25.5814ZM33.5243 23.0968H31.9578C31.759 23.0968 31.584 22.9544 31.5522 22.7566C31.3853 21.7675 30.9956 20.8338 30.4151 20.0188C30.2959 19.8526 30.3197 19.631 30.4629 19.4886L31.5681 18.3888L30.3913 17.2177L29.2701 18.3096C29.127 18.4521 28.9043 18.4679 28.7373 18.3571C27.9183 17.7795 26.9721 17.3918 25.986 17.2177C25.7873 17.186 25.6441 17.012 25.6441 16.8141V15.2553H23.9743V16.8141C23.9743 17.012 23.8311 17.186 23.6323 17.2177C22.6384 17.3838 21.7001 17.7716 20.8811 18.3571C20.7141 18.4758 20.4914 18.4521 20.3483 18.3096L19.243 17.2098L18.0662 18.3808L19.1635 19.4886C19.3066 19.631 19.3225 19.8526 19.2112 20.0188C18.6307 20.8338 18.2411 21.7754 18.0741 22.7566C18.0423 22.9544 17.8674 23.0968 17.6686 23.0968H16.0941V24.7585H17.6606C17.8594 24.7585 18.0343 24.9009 18.0662 25.0987C18.2331 26.0878 18.6228 27.0215 19.2032 27.8365C19.3225 28.0027 19.2987 28.2242 19.1555 28.3666L18.0582 29.4744L19.2351 30.6455L20.3483 29.5456C20.4914 29.4032 20.7141 29.3874 20.8811 29.4982C21.7001 30.0758 22.6463 30.4635 23.6323 30.6376C23.8311 30.6692 23.9743 30.8433 23.9743 31.0411V32.5999H25.6441V31.0411C25.6441 30.8433 25.7873 30.6692 25.986 30.6376C26.98 30.4714 27.9183 30.0837 28.7373 29.4982C28.9043 29.3795 29.127 29.4032 29.2701 29.5456L30.3754 30.6455L31.5522 29.4744L30.4549 28.3666C30.3118 28.2242 30.2959 28.0027 30.4072 27.8365C30.9877 27.0215 31.3773 26.0799 31.5443 25.0987C31.5761 24.9009 31.751 24.7585 31.9498 24.7585H33.5163V23.0968H33.5243Z" fill="#F5DD00"/>
<path d="M25.3739 27.2829L25.6363 27.4886C25.8192 27.6311 25.851 27.8843 25.7078 28.0663C25.5647 28.2482 25.3102 28.2799 25.1274 28.1375C25.1274 28.1375 25.1274 28.1375 25.1194 28.1375L23.9903 27.2512C23.8074 27.1088 23.7835 26.8477 23.9187 26.6736C23.9426 26.6499 23.9585 26.6261 23.9903 26.6024L25.1194 25.7162C25.2943 25.5738 25.5567 25.6054 25.6999 25.7795C25.843 25.9536 25.8112 26.2147 25.6363 26.3571C25.6363 26.3571 25.6363 26.3571 25.6283 26.3571L25.5886 26.3888C26.9562 25.9615 27.7117 24.5135 27.2823 23.1525C27.155 22.7568 26.9403 22.3929 26.6461 22.1001C26.4871 21.9418 26.4871 21.6807 26.6461 21.5146C26.8052 21.3563 27.0676 21.3563 27.2346 21.5146C28.5704 22.8439 28.5704 24.9961 27.2346 26.3255C26.7256 26.8319 26.0736 27.1642 25.3739 27.2829Z" fill="#F5DD00"/>
</g>
<path d="M41.0885 19.3395C40.233 19.3395 39.425 18.9648 38.8658 18.3072C38.3527 17.7037 38.1047 16.9344 38.164 16.157H33.5493C33.1492 16.157 32.8246 15.8341 32.8246 15.4358V10.5727C32.8246 10.3586 32.9202 10.1556 33.0855 10.0186C33.2507 9.8816 33.4689 9.82485 33.6801 9.86336L33.7235 9.87129C34.1595 9.95076 34.6046 9.83408 34.945 9.55168C35.2855 9.26922 35.4808 8.85427 35.4808 8.41316C35.4808 7.97211 35.2855 7.55725 34.9451 7.27485C34.6047 6.99253 34.1594 6.87614 33.7234 6.95546L33.6801 6.96339C33.4684 7.00197 33.2506 6.94508 33.0855 6.80806C32.9203 6.67105 32.8247 6.46812 32.8247 6.25409V0.926211C32.8247 0.527929 33.1492 0.205078 33.5494 0.205078H45.5715C47.3821 0.205078 48.8553 1.67093 48.8553 3.47275V15.4358C48.8553 15.8341 48.5308 16.157 48.1306 16.157H44.0146C44.0828 16.9173 43.8501 17.6751 43.3583 18.2711C42.8084 18.9374 41.9967 19.3266 41.1311 19.3393C41.1169 19.3395 41.1027 19.3395 41.0885 19.3395V19.3395ZM34.2741 14.7147H39.0164C39.2314 14.7147 39.4353 14.8098 39.5731 14.9741C39.7107 15.1384 39.768 15.3551 39.7293 15.5656L39.6305 16.1028C39.5469 16.5578 39.6714 17.0217 39.9723 17.3756C40.2637 17.7183 40.6684 17.9026 41.1099 17.8971C41.5482 17.8907 41.9595 17.6933 42.2382 17.3557C42.5168 17.0181 42.6312 16.5781 42.5521 16.1484L42.445 15.5656C42.4063 15.3551 42.4636 15.1384 42.6013 14.974C42.739 14.8097 42.9429 14.7146 43.1579 14.7146H47.4058V3.47275C47.4058 2.46619 46.5829 1.64734 45.5715 1.64734H34.2741V5.50194C34.8559 5.5574 35.413 5.78542 35.8731 6.16705C36.5448 6.72426 36.9301 7.54297 36.9301 8.41316C36.9301 9.28342 36.5448 10.1022 35.8731 10.6594C35.4129 11.0411 34.8559 11.2692 34.2741 11.3247V14.7147Z" fill="#F5DD00"/>
<path d="M19.2288 7.72885C19.2288 8.58015 18.8523 9.38421 18.1914 9.94064C17.5849 10.4512 16.8118 10.698 16.0306 10.639L16.0306 15.231C16.0306 15.6292 15.7061 15.9521 15.3059 15.9521L10.4187 15.9521C10.2036 15.9521 9.99962 15.8571 9.86193 15.6926C9.72424 15.5282 9.66721 15.3111 9.7059 15.1009L9.71388 15.0577C9.79374 14.6239 9.67648 14.1809 9.39269 13.8422C9.10883 13.5034 8.69185 13.3091 8.24855 13.3091C7.80533 13.3091 7.38842 13.5033 7.10463 13.8421C6.82092 14.1808 6.70395 14.624 6.78367 15.0578L6.79164 15.1009C6.83041 15.3116 6.77323 15.5283 6.63554 15.6926C6.49785 15.857 6.29392 15.9521 6.07884 15.9521L0.724689 15.9521C0.324443 15.9521 -1.41882e-08 15.6292 -3.16803e-08 15.2309L-5.57182e-07 3.26785C-6.36327e-07 1.4661 1.47307 0.00018322 3.28378 0.000183141L15.3059 0.000182619C15.7061 0.000182601 16.0306 0.323034 16.0306 0.721315L16.0306 4.81713C16.7946 4.74928 17.5562 4.98076 18.1551 5.47019C18.8247 6.01739 19.2158 6.82513 19.2285 7.68645C19.2287 7.70058 19.2288 7.71472 19.2288 7.72885V7.72885ZM14.5812 14.5098L14.5812 9.79079C14.5812 9.57683 14.6767 9.3739 14.8418 9.23682C15.007 9.09987 15.2248 9.04283 15.4363 9.08141L15.9761 9.1797C16.4333 9.26292 16.8995 9.13896 17.2552 8.83954C17.5996 8.54958 17.7848 8.1469 17.7792 7.70751C17.7728 7.27137 17.5745 6.86212 17.2352 6.58478C16.896 6.30757 16.4538 6.19371 16.0219 6.27238L15.4362 6.37897C15.2247 6.41747 15.0069 6.3605 14.8418 6.22349C14.6766 6.08647 14.5811 5.88355 14.5811 5.66959L14.5811 1.44252L3.28378 1.44252C2.27226 1.44252 1.44938 2.26137 1.44938 3.26785L1.44938 14.5098L5.32299 14.5098C5.37871 13.9309 5.60786 13.3765 5.99137 12.9187C6.55133 12.2502 7.37407 11.8669 8.24855 11.8669C9.12311 11.8669 9.94592 12.2502 10.5059 12.9187C10.8895 13.3765 11.1187 13.9309 11.1745 14.5098L14.5812 14.5098Z" fill="#F5DD00"/>
<path d="M9.36592 28.8655C10.2214 28.8655 11.0294 29.2402 11.5886 29.8978C12.1017 30.5014 12.3498 31.2707 12.2904 32.0481L16.9051 32.0481C17.3052 32.0481 17.6298 32.371 17.6298 32.7692L17.6298 37.6324C17.6298 37.8464 17.5342 38.0494 17.3689 38.1865C17.2037 38.3235 16.9855 38.3802 16.7743 38.3417L16.7309 38.3338C16.295 38.2543 15.8498 38.371 15.5094 38.6534C15.1689 38.9359 14.9736 39.3508 14.9736 39.7919C14.9736 40.233 15.1689 40.6478 15.5093 40.9302C15.8497 41.2126 16.295 41.3289 16.731 41.2496L16.7743 41.2417C16.986 41.2031 17.2038 41.26 17.3689 41.397C17.5341 41.534 17.6297 41.737 17.6297 41.951L17.6297 47.2789C17.6297 47.6771 17.3052 48 16.905 48L4.88292 48C3.07229 48 1.59914 46.5342 1.59914 44.7323L1.59914 32.7692C1.59914 32.371 1.92358 32.0481 2.32382 32.0481L6.43984 32.0481C6.37165 31.2878 6.60427 30.53 7.09612 29.934C7.64601 29.2677 8.45773 28.8784 9.3233 28.8658C9.33751 28.8656 9.35171 28.8655 9.36592 28.8655V28.8655ZM16.1803 33.4904L11.438 33.4904C11.223 33.4904 11.0191 33.3953 10.8813 33.231C10.7437 33.0666 10.6864 32.8499 10.7251 32.6394L10.8239 32.1023C10.9075 31.6473 10.783 31.1834 10.4821 30.8295C10.1907 30.4868 9.78602 30.3025 9.34447 30.308C8.90617 30.3144 8.49491 30.5117 8.2162 30.8494C7.93763 31.1869 7.8232 31.627 7.90226 32.0567L8.00937 32.6395C8.04807 32.85 7.99082 33.0667 7.85313 33.2311C7.71544 33.3954 7.51151 33.4904 7.29649 33.4904L3.04859 33.4904L3.04859 44.7323C3.04859 45.7389 3.87147 46.5577 4.88292 46.5577L16.1803 46.5577L16.1803 42.7031C15.5985 42.6477 15.0414 42.4197 14.5814 42.038C13.9096 41.4808 13.5243 40.6621 13.5243 39.7919C13.5243 38.9217 13.9096 38.1029 14.5814 37.5457C15.0415 37.164 15.5985 36.9359 16.1803 36.8803L16.1803 33.4904Z" fill="#F5DD00"/>
<path d="M29.7713 40.1989C29.7713 39.3476 30.1479 38.5435 30.8087 37.9871C31.4152 37.4765 32.1884 37.2297 32.9696 37.2887L32.9696 32.6967C32.9696 32.2985 33.294 31.9756 33.6943 31.9756L38.5814 31.9756C38.7965 31.9756 39.0005 32.0706 39.1382 32.2351C39.2759 32.3995 39.3329 32.6167 39.2942 32.8269L39.2863 32.8701C39.2064 33.3038 39.3236 33.7468 39.6074 34.0855C39.8913 34.4243 40.3083 34.6187 40.7516 34.6187C41.1948 34.6187 41.6117 34.4244 41.8955 34.0856C42.1792 33.7469 42.2962 33.3038 42.2165 32.8699L42.2085 32.8268C42.1697 32.6162 42.2269 32.3995 42.3646 32.2351C42.5023 32.0708 42.7062 31.9757 42.9213 31.9757L48.2754 31.9757C48.6757 31.9757 49.0001 32.2986 49.0001 32.6968L49.0001 44.6599C49.0001 46.4616 47.527 47.9275 45.7163 47.9275L33.6943 47.9275C33.294 47.9275 32.9696 47.6047 32.9696 47.2064L32.9696 43.1106C32.2055 43.1785 31.444 42.947 30.845 42.4575C30.1755 41.9103 29.7843 41.1026 29.7716 40.2413C29.7714 40.2271 29.7713 40.213 29.7713 40.1989V40.1989ZM34.419 33.4179L34.419 38.1369C34.419 38.3509 34.3234 38.5538 34.1583 38.6909C33.9931 38.8279 33.7754 38.8849 33.5638 38.8463L33.024 38.748C32.5668 38.6648 32.1006 38.7888 31.7449 39.0882C31.4006 39.3782 31.2153 39.7808 31.2209 40.2202C31.2273 40.6564 31.4256 41.0656 31.7649 41.343C32.1042 41.6202 32.5464 41.734 32.9782 41.6553L33.5639 41.5488C33.7754 41.5103 33.9932 41.5672 34.1584 41.7042C34.3235 41.8413 34.419 42.0442 34.419 42.2581L34.419 46.4852L45.7163 46.4852C46.7279 46.4852 47.5507 45.6664 47.5507 44.6599L47.5507 33.4179L43.6771 33.4179C43.6214 33.9968 43.3923 34.5513 43.0088 35.009C42.4488 35.6775 41.6261 36.0609 40.7516 36.0609C39.877 36.0609 39.0542 35.6775 38.4942 35.009C38.1107 34.5512 37.8814 33.9968 37.8256 33.4179L34.419 33.4179Z" fill="#F5DD00"/>
<path fill-rule="evenodd" clip-rule="evenodd" d="M20.5259 9.11494L19.084 9.11494L19.084 7.5957L20.5259 7.5957L20.5259 9.11494ZM24.8516 9.11494L21.9678 9.11494L21.9678 7.5957L24.8516 7.5957L24.8516 9.11494ZM29.1773 9.11494L26.2935 9.11494L26.2935 7.5957L29.1773 7.5957L29.1773 9.11494ZM32.0612 9.11494L30.6192 9.11494L30.6192 7.5957L32.0612 7.5957L32.0612 9.11494Z" fill="#F5DD00"/>
<path fill-rule="evenodd" clip-rule="evenodd" d="M18.2358 40.3317L16.7939 40.3317L16.7939 38.8125L18.2358 38.8125L18.2358 40.3317ZM22.5615 40.3317L19.6777 40.3317L19.6777 38.8125L22.5615 38.8125L22.5615 40.3317ZM26.8872 40.3317L24.0034 40.3317L24.0034 38.8125L26.8872 38.8125L26.8872 40.3317ZM29.7711 40.3317L28.3291 40.3317L28.3291 38.8125L29.7711 38.8125L29.7711 40.3317Z" fill="#F5DD00"/>
<path fill-rule="evenodd" clip-rule="evenodd" d="M9.16045 27.346L9.16045 28.8652L7.63373 28.8652L7.63373 27.346L9.16045 27.346ZM9.16045 22.7883L9.16045 25.8268L7.63373 25.8268L7.63373 22.7883L9.16045 22.7883ZM9.16046 18.2306L9.16045 21.2691L7.63373 21.2691L7.63373 18.2306L9.16046 18.2306ZM9.16046 15.1921L9.16046 16.7114L7.63373 16.7114L7.63373 15.1921L9.16046 15.1921Z" fill="#F5DD00"/>
<path fill-rule="evenodd" clip-rule="evenodd" d="M41.9849 31.9036L41.9849 33.4229L40.4582 33.4229L40.4582 31.9036L41.9849 31.9036ZM41.9849 27.3459L41.9849 30.3844L40.4582 30.3844L40.4582 27.3459L41.9849 27.3459ZM41.9849 22.7882L41.9849 25.8267L40.4582 25.8267L40.4582 22.7882L41.9849 22.7882ZM41.9849 19.7497L41.9849 21.269L40.4582 21.269L40.4582 19.7497L41.9849 19.7497Z" fill="#F5DD00"/>
<defs>
<clipPath id="clip0_2216_207">
<rect width="19.0841" height="18.9904" fill="white" transform="matrix(1 0 0 -1 15.2672 33.4229)"/>
</clipPath>
</defs>
</svg>
