<svg width="51" height="51" viewBox="0 0 51 51" fill="none" xmlns="http://www.w3.org/2000/svg">
<g clip-path="url(#clip0_2216_193)">
<path d="M50.15 28.0505C49.6806 28.0505 49.3 28.4311 49.3 28.9005C49.3 30.3087 48.1582 31.4505 46.75 31.4505H34C33.5306 31.4505 33.15 31.0699 33.15 30.6005C33.15 30.1311 33.5306 29.7505 34 29.7505H39.1C39.5694 29.7505 39.95 29.3699 39.95 28.9005C39.95 28.4311 39.5694 28.0505 39.1 28.0505H34C33.5306 28.0505 33.15 27.6699 33.15 27.2005C33.15 26.7311 33.5306 26.3505 34 26.3505H39.1C39.5694 26.3505 39.95 25.9699 39.95 25.5005C39.95 25.0311 39.5694 24.6505 39.1 24.6505H34C33.5306 24.6505 33.15 24.2699 33.15 23.8005C33.15 23.3311 33.5306 22.9505 34 22.9505H39.1C39.5694 22.9505 39.95 22.5699 39.95 22.1005C39.95 21.6311 39.5694 21.2505 39.1 21.2505H34C33.5306 21.2505 33.15 20.8699 33.15 20.4005C33.15 19.9311 33.5306 19.5505 34 19.5505H41.65C42.1194 19.5505 42.5 19.1699 42.5 18.7005C42.5 18.2311 42.1194 17.8505 41.65 17.8505H39.1C38.6306 17.8505 38.25 17.4699 38.25 17.0005V16.1505C38.25 15.6811 38.6306 15.3005 39.1 15.3005H42.5C43.9082 15.3005 45.05 16.4422 45.05 17.8505V18.7005C45.05 19.1699 45.4306 19.5505 45.9 19.5505H46.75C48.1582 19.5505 49.3 20.6922 49.3 22.1005C49.3 22.5699 49.6806 22.9505 50.15 22.9505C50.6194 22.9505 51 22.5699 51 22.1005C51 19.7534 49.0971 17.8505 46.75 17.8505C46.75 15.5034 44.8471 13.6005 42.5 13.6005H39.1C37.6918 13.6005 36.55 14.7422 36.55 16.1505V16.2099C33.8045 12.9518 29.7608 11.0713 25.5 11.0713C21.2392 11.0713 17.1955 12.9518 14.45 16.2099V16.1505C14.45 14.7422 13.3082 13.6005 11.9 13.6005H8.5C6.15294 13.6005 4.25 15.5034 4.25 17.8505C1.90294 17.8505 0 19.7534 0 22.1005C0 22.5699 0.380587 22.9505 0.85 22.9505C1.31941 22.9505 1.7 22.5699 1.7 22.1005C1.7 20.6922 2.84176 19.5505 4.25 19.5505H5.1C5.56941 19.5505 5.95 19.1699 5.95 18.7005V17.8505C5.95 16.4422 7.09176 15.3005 8.5 15.3005H11.9C12.3694 15.3005 12.75 15.6811 12.75 16.1505V17.0005C12.75 17.4699 12.3694 17.8505 11.9 17.8505H9.35C8.88059 17.8505 8.5 18.2311 8.5 18.7005C8.5 19.1699 8.88059 19.5505 9.35 19.5505H17C17.4694 19.5505 17.85 19.9311 17.85 20.4005C17.85 20.8699 17.4694 21.2505 17 21.2505H11.9C11.4306 21.2505 11.05 21.6311 11.05 22.1005C11.05 22.5699 11.4306 22.9505 11.9 22.9505H17C17.4694 22.9505 17.85 23.3311 17.85 23.8005C17.85 24.2699 17.4694 24.6505 17 24.6505H11.9C11.4306 24.6505 11.05 25.0311 11.05 25.5005C11.05 25.9699 11.4306 26.3505 11.9 26.3505H17C17.4694 26.3505 17.85 26.7311 17.85 27.2005C17.85 27.6699 17.4694 28.0505 17 28.0505H11.9C11.4306 28.0505 11.05 28.4311 11.05 28.9005C11.05 29.3699 11.4306 29.7505 11.9 29.7505H17C17.4694 29.7505 17.85 30.1311 17.85 30.6005C17.85 31.0699 17.4694 31.4505 17 31.4505H4.25C2.84176 31.4505 1.7 30.3087 1.7 28.9005C1.7 28.4311 1.31941 28.0505 0.85 28.0505C0.380587 28.0505 0 28.4311 0 28.9005C0 31.2475 1.90294 33.1505 4.25 33.1505H13.2514C15.8931 37.3706 20.5212 39.9339 25.5 39.9339C30.4788 39.9339 35.1069 37.3706 37.7486 33.1505H46.75C49.0971 33.1505 51 31.2475 51 28.9005C51 28.4311 50.6194 28.0505 50.15 28.0505ZM25.5 38.2505C21.4869 38.2505 17.708 36.3608 15.3 33.1505H17C18.4082 33.1505 19.55 32.0087 19.55 30.6005C19.5487 29.9725 19.3155 29.3674 18.8955 28.9005C19.7612 27.9326 19.7612 26.4683 18.8955 25.5005C19.7612 24.5326 19.7612 23.0683 18.8955 22.1005C19.3155 21.6335 19.5487 21.0284 19.55 20.4005C19.55 18.9922 18.4082 17.8505 17 17.8505H15.3C17.708 14.6401 21.4869 12.7505 25.5 12.7505C29.5131 12.7505 33.292 14.6401 35.7 17.8505H34C32.5918 17.8505 31.45 18.9922 31.45 20.4005C31.4513 21.0284 31.6845 21.6335 32.1045 22.1005C31.2388 23.0683 31.2388 24.5326 32.1045 25.5005C31.2388 26.4683 31.2388 27.9326 32.1045 28.9005C31.6845 29.3674 31.4513 29.9725 31.45 30.6005C31.45 32.0087 32.5918 33.1505 34 33.1505H35.7C33.292 36.3608 29.5131 38.2505 25.5 38.2505Z" fill="#F5DD00"/>
<path d="M25.5 22.1002C26.1989 22.1093 26.7622 22.6763 26.7667 23.3752C26.7667 23.8446 27.1469 24.2252 27.6167 24.2252C28.0862 24.2252 28.4667 23.8446 28.4667 23.3752C28.4634 22.0641 27.6047 20.9086 26.35 20.5276V19.5502C26.35 19.0808 25.9694 18.7002 25.5 18.7002C25.0306 18.7002 24.65 19.0808 24.65 19.5502V20.5276C23.2405 20.9543 22.3548 22.3475 22.5677 23.8052C22.7807 25.2624 24.0275 26.3444 25.5 26.3502C26.2044 26.3502 26.775 26.9209 26.775 27.6252C26.775 28.3295 26.2044 28.9002 25.5 28.9002C24.7957 28.9002 24.225 28.3295 24.225 27.6252C24.225 27.1558 23.8444 26.7752 23.375 26.7752C22.9056 26.7752 22.525 27.1558 22.525 27.6252C22.5292 28.9388 23.392 30.0947 24.65 30.4728V31.4502C24.65 31.9196 25.0306 32.3002 25.5 32.3002C25.9694 32.3002 26.35 31.9196 26.35 31.4502V30.4728C27.7595 30.0461 28.6452 28.6528 28.4323 27.1952C28.2194 25.738 26.9725 24.656 25.5 24.6502C24.7957 24.6502 24.225 24.0795 24.225 23.3752C24.225 22.6709 24.7957 22.1002 25.5 22.1002Z" fill="#F5DD00"/>
<path d="M25.5 46.75C25.0306 46.75 24.65 47.1306 24.65 47.6V50.15C24.65 50.6194 25.0306 51 25.5 51C25.9694 51 26.35 50.6194 26.35 50.15V47.6C26.35 47.1306 25.9694 46.75 25.5 46.75Z" fill="#F5DD00"/>
<path d="M25.5 41.6504C25.0306 41.6504 24.65 42.031 24.65 42.5004V44.2004C24.65 44.6698 25.0306 45.0504 25.5 45.0504C25.9694 45.0504 26.35 44.6698 26.35 44.2004V42.5004C26.35 42.031 25.9694 41.6504 25.5 41.6504Z" fill="#F5DD00"/>
<path d="M25.5 4.25C25.9694 4.25 26.35 3.86941 26.35 3.4V0.85C26.35 0.380587 25.9694 0 25.5 0C25.0306 0 24.65 0.380587 24.65 0.85V3.4C24.65 3.86941 25.0306 4.25 25.5 4.25Z" fill="#F5DD00"/>
<path d="M25.5 9.3502C25.9694 9.3502 26.35 8.96961 26.35 8.5002V6.8002C26.35 6.33078 25.9694 5.9502 25.5 5.9502C25.0306 5.9502 24.65 6.33078 24.65 6.8002V8.5002C24.65 8.96961 25.0306 9.3502 25.5 9.3502Z" fill="#F5DD00"/>
<path d="M30.175 33.5831C27.2789 35.2411 23.7212 35.2411 20.825 33.5831C20.4216 33.3723 19.9232 33.5167 19.6953 33.911C19.467 34.3053 19.5907 34.8095 19.975 35.054C23.3883 37.0491 27.6117 37.0491 31.025 35.054C31.4093 34.8095 31.533 34.3053 31.3048 33.911C31.0769 33.5167 30.5784 33.3723 30.175 33.5831Z" fill="#F5DD00"/>
<path d="M20.825 17.4163C23.7212 15.7582 27.2789 15.7582 30.175 17.4163C30.3045 17.4894 30.4511 17.5275 30.6 17.5267C30.9001 17.5267 31.1781 17.3681 31.3309 17.1099C31.445 16.9153 31.477 16.6828 31.4197 16.4642C31.3625 16.2458 31.2205 16.059 31.025 15.9453C27.6009 13.9909 23.3991 13.9909 19.975 15.9453C19.5907 16.1898 19.467 16.6941 19.6953 17.0884C19.9232 17.4827 20.4216 17.6271 20.825 17.4163Z" fill="#F5DD00"/>
<path d="M31.45 9.34999H34.85V11.9C34.85 12.3694 35.2306 12.75 35.7 12.75C36.1694 12.75 36.55 12.3694 36.55 11.9V8.49999C36.55 8.03057 36.1694 7.64999 35.7 7.64999H33.6684L39.95 1.99759L46.2316 7.64999H44.2C43.7306 7.64999 43.35 8.03057 43.35 8.49999V11.9C43.35 12.3694 43.7306 12.75 44.2 12.75C44.6694 12.75 45.05 12.3694 45.05 11.9V9.34999H48.45C48.8003 9.34914 49.1145 9.13292 49.2406 8.80588C49.3668 8.47842 49.2792 8.10697 49.0194 7.87077L40.5194 0.220775C40.1961 -0.0709875 39.7038 -0.0709875 39.3805 0.220775L30.8805 7.87077C30.6207 8.10697 30.5331 8.47842 30.6593 8.80588C30.7855 9.13292 31.0997 9.34914 31.45 9.34999Z" fill="#F5DD00"/>
<path d="M17.85 41.6496H14.45V39.0996C14.45 38.6302 14.0694 38.2496 13.6 38.2496C13.1306 38.2496 12.75 38.6302 12.75 39.0996V42.4996C12.75 42.969 13.1306 43.3496 13.6 43.3496H15.6316L9.34997 49.002L3.06837 43.3496H5.09998C5.56939 43.3496 5.94998 42.969 5.94998 42.4996V35.6996C5.94998 35.2302 5.56939 34.8496 5.09998 34.8496C4.63056 34.8496 4.24998 35.2302 4.24998 35.6996V41.6496H0.849978C0.499672 41.6505 0.185491 41.8667 0.0593725 42.1937C-0.0668524 42.5212 0.0208038 42.8926 0.280585 43.1288L8.78058 50.7788C9.1039 51.0706 9.59616 51.0706 9.91947 50.7788L18.4195 43.1288C18.6793 42.8926 18.7669 42.5212 18.6407 42.1937C18.5145 41.8667 18.2003 41.6505 17.85 41.6496Z" fill="#F5DD00"/>
</g>
<defs>
<clipPath id="clip0_2216_193">
<rect width="51" height="51" fill="white"/>
</clipPath>
</defs>
</svg>
