<svg width="66" height="54" viewBox="0 0 66 54" fill="none" xmlns="http://www.w3.org/2000/svg">
<path d="M35.6668 18.8434C35.6251 18.8434 35.5866 18.8173 35.5674 18.7783C35.545 18.723 35.5674 18.6579 35.6251 18.6351L36.3914 18.2968C36.4459 18.274 36.5101 18.2968 36.5325 18.3553C36.555 18.4107 36.5325 18.4757 36.4748 18.4985L35.7085 18.8369C35.6957 18.8401 35.6796 18.8434 35.6668 18.8434Z" fill="#F5DD00"/>
<path d="M35.6668 19.1685C35.4969 19.1685 35.343 19.0644 35.2724 18.9083C35.1794 18.687 35.2788 18.43 35.4937 18.3357L36.26 17.9973C36.478 17.903 36.7313 18.0038 36.8243 18.2218C36.9173 18.443 36.8179 18.7 36.603 18.7944L35.8367 19.1327C35.7822 19.1555 35.7245 19.1685 35.6668 19.1685Z" fill="#F5DD00"/>
<path d="M34.5991 16.7062C34.5606 16.7062 34.5222 16.6867 34.5029 16.6477C34.4741 16.5924 34.4933 16.5273 34.5478 16.498L35.3109 16.0751C35.3654 16.0458 35.4295 16.0653 35.4584 16.1206C35.4872 16.1759 35.468 16.241 35.4135 16.2703L34.6504 16.6932C34.6376 16.703 34.6183 16.7062 34.5991 16.7062Z" fill="#F5DD00"/>
<path d="M34.5991 17.0314C34.442 17.0314 34.2945 16.9436 34.2207 16.8037C34.1662 16.7028 34.1534 16.5825 34.1855 16.4718C34.2175 16.3612 34.2913 16.2669 34.3939 16.2116L35.157 15.7886C35.3654 15.6748 35.6283 15.7528 35.7405 15.9643C35.795 16.0652 35.8079 16.1855 35.7758 16.2962C35.7437 16.4068 35.67 16.5011 35.5674 16.5564L34.8043 16.9794C34.7434 17.0152 34.6728 17.0314 34.5991 17.0314Z" fill="#F5DD00"/>
<path d="M33.0152 14.6758C32.9863 14.6758 32.9575 14.666 32.935 14.6432C32.8933 14.5977 32.8933 14.5261 32.935 14.4838L33.5923 13.8266C33.6372 13.7843 33.7077 13.7843 33.7494 13.8266C33.7911 13.8722 33.7911 13.9438 33.7494 13.9861L33.0921 14.6432C33.0729 14.6628 33.044 14.6758 33.0152 14.6758Z" fill="#F5DD00"/>
<path d="M33.0152 15.0011C32.8998 15.0011 32.7875 14.9523 32.7074 14.871C32.6272 14.7896 32.5823 14.679 32.5855 14.5619C32.5855 14.4448 32.6304 14.3342 32.7138 14.2528L33.3711 13.5956C33.4545 13.5143 33.5603 13.4688 33.6789 13.4688C33.7943 13.4688 33.9033 13.5176 33.9835 13.6021C34.0637 13.6835 34.1085 13.7941 34.1053 13.9112C34.1053 14.0283 34.0604 14.139 33.9771 14.2203L33.3198 14.8775C33.2364 14.9556 33.1306 15.0011 33.0152 15.0011Z" fill="#F5DD00"/>
<path d="M30.9279 13.0137C30.9055 13.0137 30.8862 13.0072 30.867 12.9942C30.8157 12.9584 30.7997 12.8901 30.8349 12.8348L31.3768 11.9921C31.4121 11.9401 31.4794 11.9238 31.5339 11.9596C31.5852 11.9954 31.6012 12.0637 31.566 12.119L31.0241 12.9617C31.0017 12.9942 30.9664 13.0137 30.9279 13.0137Z" fill="#F5DD00"/>
<path d="M30.9279 13.3392C30.8446 13.3392 30.7612 13.3132 30.6907 13.2676C30.5913 13.2026 30.5271 13.105 30.5015 12.9911C30.4791 12.8772 30.4983 12.7569 30.5624 12.6593L31.1043 11.8166C31.2357 11.6149 31.5051 11.5564 31.7039 11.6865C31.8033 11.7516 31.8674 11.8492 31.893 11.9663C31.9155 12.0802 31.8962 12.2005 31.8321 12.2981L31.2902 13.1408C31.2101 13.2644 31.0754 13.3392 30.9279 13.3392Z" fill="#F5DD00"/>
<path d="M28.6547 11.8748C28.6354 11.8748 28.6194 11.8715 28.6002 11.8618C28.5457 11.8325 28.5232 11.7609 28.5521 11.7056L29.0555 10.7394C29.0843 10.6841 29.1549 10.6613 29.2094 10.6906C29.2639 10.7198 29.2863 10.7914 29.2575 10.8467L28.7541 11.813C28.7348 11.8553 28.6964 11.8748 28.6547 11.8748Z" fill="#F5DD00"/>
<path d="M28.6547 12.1999C28.5841 12.1999 28.5136 12.1836 28.4495 12.1478C28.2378 12.034 28.1577 11.7672 28.2699 11.5525L28.7733 10.5862C28.8855 10.3715 29.1484 10.2901 29.36 10.404C29.4626 10.4593 29.5396 10.5504 29.5717 10.6643C29.6069 10.7781 29.5941 10.8953 29.5396 10.9994L29.0362 11.9656C28.9625 12.112 28.815 12.1999 28.6547 12.1999Z" fill="#F5DD00"/>
<path d="M26.4583 11.1986C26.4487 11.1986 26.4391 11.1986 26.4295 11.1953C26.3686 11.179 26.3301 11.1172 26.3461 11.0522L26.6283 9.89395C26.6443 9.83214 26.7084 9.7931 26.7693 9.80936C26.8303 9.82563 26.8687 9.88745 26.8527 9.95251L26.5706 11.1107C26.5577 11.1628 26.5096 11.1986 26.4583 11.1986Z" fill="#F5DD00"/>
<path d="M26.4583 11.5238L26.3525 11.5107C26.2403 11.4815 26.1441 11.4099 26.0832 11.309C26.0223 11.2082 26.0062 11.0878 26.0319 10.9739L26.3108 9.81571C26.3685 9.57822 26.6058 9.43507 26.8367 9.49037C27.0707 9.54894 27.215 9.78969 27.1573 10.0272L26.8784 11.1854C26.8335 11.3839 26.6603 11.5238 26.4583 11.5238Z" fill="#F5DD00"/>
<path d="M24.1562 11.0736C24.0985 11.0703 24.0504 11.0248 24.044 10.9662L23.919 9.67136C23.9126 9.60629 23.9607 9.54773 24.0248 9.54122C24.0889 9.53146 24.1466 9.58351 24.153 9.64858L24.2781 10.9434C24.2845 11.0085 24.2364 11.0671 24.1723 11.0736C24.1691 11.0736 24.1626 11.0736 24.1562 11.0736Z" fill="#F5DD00"/>
<path d="M24.1851 11.3994H24.1434C23.9286 11.3896 23.749 11.2172 23.7266 10.9992L23.6015 9.70435C23.5887 9.58723 23.624 9.47011 23.7009 9.37901C23.7747 9.28792 23.8805 9.22936 23.9959 9.2196C24.1017 9.20658 24.2171 9.23912 24.3101 9.31394C24.4031 9.38877 24.4608 9.49939 24.4736 9.61976L24.5987 10.9114C24.6211 11.1554 24.4448 11.3733 24.2043 11.3961L24.1851 11.3994Z" fill="#F5DD00"/>
<path d="M21.8252 11.4618C21.7772 11.4618 21.7323 11.4325 21.713 11.3805L21.2385 10.0498C21.2161 9.98802 21.2481 9.91645 21.309 9.89693C21.37 9.87415 21.4405 9.90669 21.4629 9.9685L21.9375 11.2991C21.9599 11.361 21.9278 11.4325 21.8669 11.4553C21.8509 11.4618 21.8381 11.4618 21.8252 11.4618Z" fill="#F5DD00"/>
<path d="M21.8253 11.7869C21.6393 11.7869 21.4758 11.6698 21.4116 11.4941L20.9371 10.1635C20.8986 10.0496 20.9018 9.92923 20.9531 9.82187C21.0044 9.7145 21.091 9.63317 21.2032 9.59087C21.3122 9.55183 21.4309 9.55509 21.5367 9.60714C21.6425 9.6592 21.7227 9.74704 21.7643 9.86091L22.2389 11.1915C22.3222 11.4225 22.2036 11.6796 21.9759 11.7641C21.9246 11.7804 21.8733 11.7869 21.8253 11.7869Z" fill="#F5DD00"/>
<path d="M19.7187 12.3564C19.6739 12.3564 19.6322 12.3336 19.6129 12.2913L18.9172 10.9281C18.8851 10.8696 18.9108 10.7948 18.9685 10.7622C19.0262 10.7297 19.0999 10.7557 19.132 10.8143L19.8278 12.1774C19.8598 12.236 19.8342 12.3108 19.7765 12.3434C19.7572 12.3531 19.738 12.3564 19.7187 12.3564Z" fill="#F5DD00"/>
<path d="M19.7187 12.6813C19.552 12.6813 19.4045 12.5902 19.3276 12.4406L18.6318 11.0774C18.5773 10.97 18.5677 10.8496 18.6029 10.7358C18.6382 10.6219 18.7152 10.5276 18.821 10.4722C18.9236 10.4169 19.0422 10.4072 19.1544 10.443C19.2666 10.4788 19.3596 10.5568 19.4141 10.6642L20.1099 12.0274C20.1644 12.1347 20.174 12.2551 20.1388 12.369C20.1035 12.4828 20.0265 12.5772 19.9207 12.6325C19.8598 12.665 19.7893 12.6813 19.7187 12.6813Z" fill="#F5DD00"/>
<path d="M17.5385 13.648C17.5 13.648 17.4615 13.6285 17.4359 13.5927L16.5285 12.2132C16.49 12.1579 16.506 12.0799 16.5637 12.0408C16.6183 12.0018 16.6952 12.018 16.7337 12.0766L17.6411 13.456C17.6795 13.5114 17.6635 13.5894 17.6058 13.6285C17.5833 13.6415 17.5609 13.648 17.5385 13.648Z" fill="#F5DD00"/>
<path d="M17.5384 13.9733C17.3909 13.9733 17.2531 13.8985 17.1697 13.7749L16.2623 12.3954C16.1982 12.2946 16.1725 12.1774 16.195 12.0571C16.2174 11.9399 16.2848 11.8391 16.3842 11.7708C16.4804 11.7057 16.599 11.6797 16.7144 11.7024C16.8298 11.7252 16.9324 11.7935 16.9966 11.8944L17.9039 13.2738C17.9681 13.3747 17.9937 13.4918 17.9713 13.6122C17.9488 13.7293 17.8815 13.8302 17.7821 13.8985C17.7116 13.9473 17.625 13.9733 17.5384 13.9733Z" fill="#F5DD00"/>
<path d="M15.605 15.5324C15.5761 15.5324 15.5441 15.5226 15.5216 15.4999L14.2199 14.2994C14.1686 14.2538 14.1654 14.1725 14.2103 14.1237C14.2551 14.0716 14.3353 14.0684 14.3834 14.1139L15.6851 15.3144C15.7365 15.36 15.7397 15.4413 15.6948 15.4901C15.6723 15.5194 15.6371 15.5324 15.605 15.5324Z" fill="#F5DD00"/>
<path d="M15.605 15.8573C15.496 15.8573 15.387 15.815 15.3068 15.7402L14.0051 14.5397C13.8223 14.3737 13.8095 14.0874 13.973 13.902C14.1397 13.7166 14.4219 13.7035 14.6014 13.8727L15.9032 15.0732C16.086 15.2392 16.0988 15.5255 15.9353 15.7109C15.8487 15.802 15.7301 15.8573 15.605 15.8573Z" fill="#F5DD00"/>
<path d="M14.268 17.5653C14.2456 17.5653 14.2231 17.5588 14.2039 17.5491L12.5815 16.5698C12.5206 16.534 12.5014 16.4559 12.5366 16.3974C12.5719 16.3356 12.6488 16.316 12.7066 16.3518L14.3289 17.3311C14.3899 17.3669 14.4091 17.445 14.3738 17.5035C14.3514 17.5426 14.3097 17.5653 14.268 17.5653Z" fill="#F5DD00"/>
<path d="M14.268 17.8904C14.1878 17.8904 14.1109 17.8676 14.0404 17.8285L12.418 16.8493C12.3154 16.7875 12.2448 16.6899 12.2128 16.5727C12.1839 16.4556 12.1999 16.3352 12.2609 16.2311C12.3218 16.127 12.418 16.0554 12.5334 16.0229C12.6488 15.9936 12.7675 16.0099 12.8701 16.0717L14.4924 17.051C14.595 17.1128 14.6656 17.2104 14.6976 17.3275C14.7265 17.4446 14.7105 17.565 14.6495 17.6691C14.5694 17.8058 14.4219 17.8904 14.268 17.8904Z" fill="#F5DD00"/>
<path d="M13.3318 19.868C13.3222 19.868 13.3125 19.8648 13.3029 19.8615L11.3984 19.1848C11.3311 19.162 11.299 19.0872 11.3214 19.0221C11.3439 18.9538 11.4176 18.918 11.4818 18.9441L13.3863 19.6208C13.4536 19.6435 13.4857 19.7184 13.4632 19.7834C13.4472 19.8387 13.3895 19.8745 13.3318 19.868Z" fill="#F5DD00"/>
<path d="M13.3478 20.1936C13.3318 20.1936 13.3125 20.1936 13.2965 20.1903L13.2612 20.1871L13.2003 20.1675L11.2958 19.4908C11.1836 19.4518 11.0938 19.3672 11.0393 19.2598C10.988 19.1492 10.9816 19.0288 11.02 18.9117C11.0585 18.7979 11.1419 18.7068 11.2477 18.6515C11.3567 18.5994 11.4785 18.5929 11.5908 18.6352L13.4921 19.3119C13.6043 19.3509 13.6941 19.4355 13.7486 19.5429C13.7999 19.6535 13.8063 19.7739 13.7678 19.891C13.7037 20.0732 13.537 20.1936 13.3478 20.1936Z" fill="#F5DD00"/>
<path d="M12.9149 22.3766C12.9085 22.3766 12.9021 22.3766 12.8957 22.3766L10.7667 22.0708C10.6962 22.061 10.6481 21.9959 10.6577 21.9244C10.6673 21.8528 10.7315 21.804 10.802 21.8137L12.931 22.1196C13.0015 22.1293 13.0496 22.1944 13.04 22.266C13.0304 22.3278 12.9759 22.3766 12.9149 22.3766Z" fill="#F5DD00"/>
<path d="M12.8957 22.7021L12.8508 22.6956L10.7218 22.3898C10.4749 22.354 10.305 22.123 10.3403 21.8757C10.3723 21.6317 10.6 21.4593 10.8437 21.4886L12.9758 21.7977C13.2227 21.8335 13.3927 22.0644 13.3574 22.3117C13.3285 22.5297 13.1394 22.6989 12.9213 22.7021H12.8957Z" fill="#F5DD00"/>
<path d="M10.709 24.9241C10.6417 24.9241 10.584 24.8688 10.5808 24.8004C10.5776 24.7289 10.6321 24.667 10.7026 24.6605L12.9823 24.5206C13.0528 24.5174 13.1137 24.5727 13.1201 24.6443C13.1234 24.7158 13.0688 24.7777 12.9983 24.7842L10.7186 24.9241C10.7154 24.9241 10.7122 24.9241 10.709 24.9241Z" fill="#F5DD00"/>
<path d="M10.709 25.2494C10.4718 25.2494 10.273 25.0608 10.2601 24.82C10.2537 24.6996 10.2922 24.5825 10.3724 24.4914C10.4525 24.4003 10.5615 24.345 10.6834 24.3385L12.9598 24.1986C13.2067 24.1888 13.4216 24.3808 13.4376 24.628C13.444 24.7484 13.4055 24.8655 13.3254 24.9566C13.2452 25.0477 13.1362 25.103 13.0144 25.1096L10.709 25.2494Z" fill="#F5DD00"/>
<path d="M33.3535 40.0199C33.1556 40.0199 32.9675 39.893 32.8527 39.6718C31.4798 37.043 29.2959 24.088 28.5703 19.6048L24.0608 24.859C23.8067 25.1551 23.4207 25.1193 23.1984 24.7842C22.9761 24.4459 23.003 23.9318 23.2546 23.6358L28.5435 17.4673C28.7071 17.2754 28.9343 17.2168 29.1395 17.3079C29.3447 17.399 29.4986 17.63 29.5426 17.913C30.1875 22.0091 31.8511 31.7953 33.097 36.4867C34.8266 25.4414 40.3866 5.65094 41.8426 2.53093C41.9892 2.2186 42.275 2.07545 42.5412 2.18282C42.8051 2.29018 42.9834 2.62528 42.9712 2.99291C42.7269 10.9572 42.6805 22.2628 42.9199 25.6756C44.1365 24.2929 46.8749 20.7825 49.3349 17.5031C49.4791 17.3111 49.6867 17.2266 49.887 17.2819C50.0873 17.3339 50.2535 17.5161 50.3316 17.7666L52.2737 24.0034L59.1725 23.9676H59.1749C59.512 23.9676 59.7832 24.3287 59.7856 24.7777C59.7881 25.2267 59.5145 25.5911 59.1773 25.5943L51.8682 25.6334H51.8658C51.619 25.6334 51.3967 25.4349 51.3015 25.1323L49.5523 19.5137C43.3425 27.7481 42.8417 27.8034 42.5974 27.8327C42.4118 27.8554 42.2237 27.7643 42.0869 27.5886C41.8352 27.2666 41.547 26.9022 41.5421 17.6853C41.5397 14.3766 41.5812 10.4237 41.652 6.91327C39.3044 14.3993 34.8583 31.021 33.952 39.3237C33.9154 39.6555 33.7322 39.9223 33.4879 39.9971C33.4464 40.0101 33.3999 40.0199 33.3535 40.0199Z" fill="#F5DD00"/>
<path d="M57.9071 24.7875L56.3436 21.3974L56.4316 21.3193L60.5992 23.4991C62.0502 23.9156 63.5013 24.332 64.9524 24.7517C63.5037 25.1844 62.0551 25.6171 60.6065 26.0498L56.4511 28.2719L56.3632 28.2133L57.9071 24.7875Z" fill="#F5DD00"/>
<path d="M9.43291 33.1031C9.42009 33.064 9.40726 33.012 9.40085 32.9664C9.33031 32.3515 9.26298 31.6716 9.20206 31.0859C9.1187 30.227 9.02571 29.2348 8.95838 28.5385C8.91349 28.0668 8.766 27.6178 8.55118 27.2827C8.4069 27.068 8.24658 26.9086 8.06703 26.8305C7.92275 26.7719 7.7464 26.7654 7.56364 26.837C7.31355 26.9346 7.0346 27.1396 6.72359 27.4974C6.44785 27.8163 6.23303 28.2425 6.05348 28.6947C5.80018 29.3551 5.64949 30.0579 5.58857 30.5394C5.58215 30.5719 5.58215 30.5979 5.56933 30.624L3.84434 40.5599C3.81869 40.69 3.76739 40.8071 3.69044 40.8982C3.1101 41.6563 2.74458 42.3069 2.63877 42.834C2.56182 43.2211 2.63877 43.5335 2.89207 43.7775L9.24053 50.2192C9.64453 50.6129 10.1126 50.8601 10.6737 50.9642C11.2862 51.0814 12.0012 51.0163 12.822 50.7886C12.8348 50.7886 12.854 50.782 12.8669 50.782C13.1779 50.6975 13.5851 50.5966 13.9762 50.4958C15.6788 50.0761 17.1633 49.7052 18.5388 48.4363L20.3087 46.5624C20.3247 46.5299 20.3536 46.5038 20.3792 46.4778C20.4049 46.4518 20.578 46.2761 20.8121 46.0516C22.024 44.8511 23.5214 43.3675 22.6108 42.0694L21.9022 41.3504C21.5591 41.6888 21.1936 42.0174 20.8441 42.333C20.5235 42.6193 20.2253 42.8828 19.9528 43.1626C19.661 43.4586 19.1897 43.4586 18.8947 43.1626C18.6029 42.8633 18.6029 42.3883 18.8947 42.089C19.1704 41.8092 19.5071 41.5066 19.8566 41.191C21.0557 40.1174 22.4312 38.8909 21.6938 37.814L20.9916 37.1015C20.9531 37.0624 20.9211 37.0169 20.8922 36.9714C20.4882 37.391 20.0457 37.7912 19.6097 38.1816C19.2891 38.4679 18.9909 38.7314 18.7183 39.0112C18.4266 39.3073 17.9552 39.3073 17.6603 39.0112C17.3653 38.7152 17.3685 38.2369 17.6603 37.9376C17.936 37.6578 18.2727 37.3553 18.6222 37.0397C19.8213 35.966 21.1968 34.7395 20.4594 33.6626L19.7572 32.9501C19.7059 32.8981 19.6674 32.8493 19.6353 32.7875L17.5769 34.8762C17.2851 35.1722 16.8138 35.1722 16.5188 34.8762C16.2238 34.5801 16.2271 34.1018 16.5188 33.8025L22.0401 28.1904C22.9635 27.2534 23.1751 26.2774 22.9314 25.5389C22.8416 25.2689 22.6941 25.0281 22.5114 24.8427C22.3286 24.6572 22.0914 24.5076 21.8252 24.4165C21.107 24.1757 20.1483 24.3969 19.1993 25.3599L9.51628 35.1852C9.2245 35.4813 8.75318 35.4813 8.4582 35.1852C8.16322 34.8892 8.16643 34.4109 8.4582 34.1116L9.44253 33.1128L9.43291 33.1031ZM20.6646 31.7431C20.7191 31.7757 20.7736 31.8147 20.8249 31.8668L21.5591 32.6118C21.5976 32.6508 21.6361 32.7029 21.6681 32.7484C22.4921 33.8936 22.3639 34.9152 21.8028 35.8457C21.9022 35.8847 22.0016 35.94 22.0785 36.0214L22.8128 36.7664C22.8513 36.8054 22.8897 36.8575 22.9218 36.903C23.8067 38.1393 23.5855 39.2195 22.9218 40.202C22.9539 40.2182 22.9763 40.2475 23.0116 40.2801L23.7458 41.0251C23.7843 41.0641 23.8228 41.1162 23.8548 41.1617C25.5574 43.5237 23.5278 45.5278 21.899 47.1447L21.479 47.5709L19.661 49.5067L19.6033 49.562C17.9392 51.0944 16.2912 51.5043 14.3834 51.976C14.0628 52.0541 13.7422 52.1387 13.2933 52.2558C13.2805 52.2558 13.2741 52.2624 13.2612 52.2624C12.2288 52.5486 11.2926 52.617 10.4525 52.4641C9.59964 52.3079 8.85899 51.9207 8.24017 51.3058L1.8853 44.8609C1.24404 44.2329 1.0228 43.4586 1.20556 42.5379C1.34343 41.8027 1.76666 40.9861 2.42716 40.1076L4.1265 30.3669V30.3279C4.20345 29.7716 4.37659 28.9485 4.67477 28.1546C4.90242 27.5593 5.21022 26.9769 5.61101 26.5051C6.09516 25.9488 6.5729 25.6072 7.04422 25.425C7.62456 25.2005 8.17925 25.2298 8.66981 25.4445C9.12831 25.6397 9.51628 25.9944 9.81126 26.4466C10.1704 26.9899 10.4044 27.6829 10.4685 28.4051C10.5198 29.0005 10.6224 29.983 10.7186 30.946L10.7956 31.7496L18.138 24.2928C19.5488 22.8613 21.075 22.5783 22.2966 22.985C22.7871 23.1476 23.22 23.4177 23.5791 23.782C23.9382 24.1464 24.2043 24.5856 24.3646 25.0834C24.7686 26.3197 24.4929 27.8911 23.1078 29.2966L20.6742 31.7659L20.6646 31.7431Z" fill="#F5DD00"/>
<path d="M40.1542 25.5569C40.0997 25.5569 40.0452 25.5504 39.9907 25.5407C39.1666 25.365 35.2037 25.2511 32.7412 25.2153C32.2988 25.2088 31.9461 24.8412 31.9525 24.3922C31.9589 23.9433 32.3372 23.5854 32.7637 23.5919C33.4049 23.6016 39.0801 23.6895 40.3177 23.9498C40.7506 24.0409 41.0295 24.4703 40.9397 24.9128C40.8596 25.2934 40.5261 25.5569 40.1542 25.5569Z" fill="#F5DD00"/>
</svg>
