<svg width="102" height="74" viewBox="0 0 102 74" fill="none" xmlns="http://www.w3.org/2000/svg">
<path d="M73.2939 61.7687C73.0625 63.8468 72.8158 65.2676 70.859 67.2843C70.859 67.2843 76.0485 69.6749 74.3315 73.8133L0.126362 66.7431C-0.143576 62.1837 3.06157 59.4993 6.058 59.5755C6.96858 59.5987 7.89189 59.7609 8.36138 60.1726C10.7459 58.7992 12.9698 58.0852 15.7972 58.3546C17.7163 58.5374 18.8928 58.7169 20.4761 59.6426C20.9168 58.8424 21.7693 58.404 22.6033 58.4834C23.0723 58.5281 23.4636 58.8152 23.6873 59.2239C24.2826 58.8779 24.8389 58.6964 25.5469 58.7639C25.9817 58.8053 26.5705 59.0442 26.8909 59.5291C28.7447 56.084 32.2713 53.8968 36.048 54.2566C37.4343 54.3887 38.7102 54.8518 39.8246 55.5671C40.3471 54.8421 41.1733 54.406 42.052 54.4897C42.505 54.5328 42.913 54.7119 43.2511 54.9812C44.4157 52.4567 46.8878 50.8138 49.5444 51.067C51.3656 51.2405 52.9029 52.2688 53.8798 53.7637C54.7993 52.9236 55.9968 52.4591 57.2534 52.5788C57.3968 52.5925 57.5371 52.6135 57.6743 52.6419C57.8115 52.6702 58.3638 52.2288 58.9555 52.2902C59.3555 52.3317 59.7249 52.3739 60.1237 52.632C60.4518 52.8445 61.216 53.6337 61.216 53.6337C61.216 53.6337 61.055 49.5837 62.5588 48.2283C63.5334 47.3476 64.7373 47.0111 65.8668 47.1774C66.4131 44.8336 68.4453 43.1743 70.6626 43.3856C71.2795 43.4444 71.8531 43.6443 72.3571 43.9523C72.3521 43.832 72.354 43.7124 72.3677 43.5888C72.5028 42.3758 73.5002 41.4768 74.5951 41.5811C75.0254 41.6221 75.4044 41.8137 75.7013 42.1019C76.0956 41.7011 76.6342 41.4721 77.201 41.5261C77.3012 41.5356 77.3979 41.555 77.4916 41.5818C77.5807 40.8639 78.1666 40.3335 78.8268 40.3964C79.487 40.4593 79.9537 41.1028 79.8725 41.8316C79.8035 42.452 79.3583 42.9372 78.8193 43.026C78.8791 43.2738 78.898 43.5382 78.8676 43.8105C78.7904 44.5041 78.4194 45.0881 77.9078 45.4267C78.0375 45.7908 78.0907 46.2011 78.0435 46.6248C77.9067 47.853 76.9834 48.7896 75.9035 48.8804C76.3105 49.5437 76.5128 50.3709 76.4151 51.2485C76.2076 53.1123 74.7335 54.5113 73.0659 54.4875C73.0927 54.7423 73.098 55.0054 73.0682 55.2727C73.0139 55.6963 72.2673 57.0995 71.983 56.7131C71.6988 56.3267 73.5416 59.5443 73.2939 61.7687Z" fill="#2B3990"/>
<path d="M82.8178 41.4614L83.8332 44.8438L85.47 43.403C85.6997 43.2009 85.8605 42.9831 85.9396 42.7657L86.9368 40.0411C87.1515 39.4542 86.7632 38.9354 85.9424 38.7125L82.8178 41.4614Z" fill="#4888E8"/>
<path d="M77.5988 36.3842L73.9976 35.2765L75.6344 33.8357C75.8641 33.6336 76.1069 33.496 76.3462 33.4344L79.3372 32.649C79.9807 32.4799 80.5217 32.8654 80.7219 33.6348L77.5972 36.3837L77.5988 36.3842Z" fill="#4888E8"/>
<path opacity="0.2" d="M75.9021 44.9831C74.5289 46.1909 70.3846 48.82 69.7067 48.1609C69.0287 47.5018 72.0755 43.8051 73.4492 42.5959C74.6587 41.5328 75.4993 41.8108 76.1756 42.4695C76.8536 43.1286 77.11 43.9196 75.9021 44.9831Z" fill="url(#paint0_linear_3253_1753)"/>
<path opacity="0.27" d="M75.8534 44.9052C74.5129 46.085 70.4316 48.7115 69.7908 48.0881C69.1501 47.4647 72.1911 43.8253 73.5316 42.6455C74.7115 41.6064 75.5156 41.8621 76.1579 42.486C76.7986 43.1094 77.0349 43.8666 75.8539 44.9037L75.8534 44.9052Z" fill="url(#paint1_linear_3253_1753)"/>
<path opacity="0.35" d="M75.8065 44.8265C74.4988 45.9784 70.4819 48.6028 69.8768 48.0145C69.2717 47.4263 72.308 43.8462 73.6157 42.6943C74.7671 41.6812 75.5347 41.9145 76.1398 42.5027C76.7449 43.091 76.9579 43.8134 75.8065 44.8265Z" fill="url(#paint2_linear_3253_1753)"/>
<path opacity="0.42" d="M75.7574 44.7499C74.4814 45.8718 70.5285 48.4956 69.959 47.9426C69.3895 47.3895 72.4211 43.8687 73.6972 42.7467C74.8201 41.7595 75.5516 41.969 76.1206 42.5236C76.6902 43.0766 76.8798 43.7642 75.7569 44.7514L75.7574 44.7499Z" fill="url(#paint3_linear_3253_1753)"/>
<path opacity="0.49" d="M75.708 44.6709C74.4647 45.7649 70.5748 48.3861 70.0424 47.8687C69.5101 47.3513 72.536 43.8877 73.7788 42.7952C74.8737 41.8325 75.5682 42.0211 76.1005 42.5385C76.6328 43.0559 76.8007 43.7092 75.7075 44.6724L75.708 44.6709Z" fill="url(#paint4_linear_3253_1753)"/>
<path opacity="0.56" d="M75.6595 44.593C74.4494 45.6576 70.6235 48.2781 70.1273 47.7944C69.6311 47.3107 72.6518 43.9079 73.8619 42.8434C74.9267 41.9061 75.5867 42.0714 76.0829 42.5551C76.5791 43.0388 76.7259 43.6562 75.6595 44.593Z" fill="url(#paint5_linear_3253_1753)"/>
<path opacity="0.64" d="M75.6101 44.5141C74.4328 45.5507 70.6698 48.1687 70.2092 47.7201C69.7486 47.2716 72.7646 43.9281 73.9419 42.8915C74.9782 41.9802 75.6018 42.1231 76.0623 42.5717C76.5229 43.0202 76.6463 43.6028 75.6101 44.5141Z" fill="url(#paint6_linear_3253_1753)"/>
<path opacity="0.71" d="M75.5608 44.4367C74.4152 45.4433 70.7178 48.0612 70.2928 47.6478C69.8694 47.235 72.8797 43.9488 74.0237 42.9416C75.032 42.0548 75.619 42.1753 76.0424 42.5882C76.4658 43.0011 76.5675 43.5493 75.5592 44.4362L75.5608 44.4367Z" fill="url(#paint7_linear_3253_1753)"/>
<path opacity="0.78" d="M75.5129 44.3577C74.4 45.3364 70.7655 47.9517 70.3777 47.574C69.99 47.1963 72.9956 43.9694 74.1084 42.9907C75.0882 42.1297 75.6387 42.228 76.0265 42.6057C76.4143 42.9833 76.4926 43.4968 75.5145 44.3582L75.5129 44.3577Z" fill="url(#paint8_linear_3253_1753)"/>
<path opacity="0.85" d="M75.4636 44.2789C74.384 45.2282 70.8119 47.8423 70.4614 47.5003C70.1108 47.1583 73.1101 43.9901 74.1902 43.0394C75.1404 42.2025 75.6544 42.2784 76.0066 42.6208C76.3588 42.9633 76.4154 43.4425 75.4636 44.2789Z" fill="url(#paint9_linear_3253_1753)"/>
<path opacity="0.93" d="M75.415 44.2002C74.3682 45.1215 70.8607 47.7335 70.5441 47.4262C70.2291 47.1194 73.2243 44.009 74.2711 43.0877C75.1928 42.2767 75.6703 42.3303 75.9868 42.6376C76.3018 42.9444 76.3367 43.3892 75.415 44.2002Z" fill="url(#paint10_linear_3253_1753)"/>
<path d="M75.3656 44.122C74.3515 45.0153 70.9069 47.6248 70.6275 47.3531C70.3481 47.0815 73.3387 44.0303 74.3527 43.137C75.2459 42.352 75.6868 42.3832 75.9662 42.6548C76.2456 42.9265 76.2571 43.3365 75.364 44.1215L75.3656 44.122Z" fill="url(#paint11_linear_3253_1753)"/>
<path d="M77.6925 43.1715L75.4947 41.0339L75.1683 41.3204C75.1683 41.3204 75.1614 41.3249 75.1583 41.3289C74.7859 41.6558 74.9773 42.3996 75.5835 42.9898C76.1897 43.5801 76.9837 43.7934 77.356 43.4665C77.3587 43.464 77.3618 43.46 77.3645 43.4575L77.6909 43.171L77.6925 43.1715Z" fill="url(#paint12_linear_3253_1753)"/>
<path d="M82.1089 42.1136L76.8601 37.0059L75.2191 38.4487C75.2112 38.4562 75.2038 38.4622 75.1964 38.4682C74.308 39.2498 74.7638 41.0264 76.2135 42.4364C77.6633 43.8465 79.5573 44.356 80.4451 43.5759C80.4525 43.5699 80.4589 43.5619 80.4663 43.5559L82.1073 42.1131L82.1089 42.1136Z" fill="url(#paint13_linear_3253_1753)"/>
<g style="mix-blend-mode:multiply" opacity="0.5">
<path d="M82.0517 42.1626L76.8029 37.0549L75.4957 38.2053C75.4957 38.2053 75.4835 38.2148 75.4761 38.2208C74.7689 38.8431 75.3684 40.492 76.8181 41.902C78.2678 43.3121 80.0161 43.9503 80.7233 43.328C80.7286 43.323 80.7344 43.3165 80.7397 43.3115L82.0469 42.1612L82.0517 42.1626Z" fill="#AFB6E5"/>
</g>
<path d="M89.0181 38.7754C91.6232 36.9752 93.4892 34.3812 94.1553 31.4368C94.1838 31.3141 94.2095 31.189 94.2332 31.0649L95.2992 25.6461L89.396 26.3584C89.2607 26.3755 89.1254 26.3926 88.9907 26.4132C85.7784 26.8819 82.884 28.4748 80.8101 30.7904L75.9943 36.1706C75.9843 36.1791 75.9727 36.1871 75.9642 36.196C74.7848 37.2336 75.3891 39.5921 77.3156 41.4653C79.2405 43.3381 81.7562 44.0162 82.9356 42.9786C82.9456 42.9701 82.9541 42.9611 82.9646 42.9511L89.0154 38.7729L89.0181 38.7754Z" fill="url(#paint14_linear_3253_1753)"/>
<path d="M94.2351 31.0659L95.3011 25.647L89.3978 26.3593C89.3648 26.3626 89.3323 26.3693 89.2993 26.3726C89.1405 27.2877 89.6819 28.5586 90.7778 29.6257C91.8754 30.6932 93.2195 31.2555 94.2142 31.1564C94.2214 31.1257 94.228 31.0965 94.2335 31.0654L94.2351 31.0659Z" fill="url(#paint15_linear_3253_1753)"/>
<path opacity="0.3" d="M94.2351 31.0659L95.3011 25.647L89.3978 26.3593C89.3648 26.3626 89.3323 26.3693 89.2993 26.3726C89.1405 27.2877 89.6819 28.5586 90.7778 29.6257C91.8754 30.6932 93.2195 31.2555 94.2142 31.1564C94.2214 31.1257 94.228 31.0965 94.2335 31.0654L94.2351 31.0659Z" fill="url(#paint16_linear_3253_1753)"/>
<path style="mix-blend-mode:multiply" opacity="0.5" d="M89.0181 38.7754C91.6232 36.9752 93.4892 34.3812 94.1553 31.4368C94.1838 31.3141 94.2095 31.189 94.2332 31.0649L95.2992 25.6461L89.396 26.3584C89.2607 26.3755 89.1254 26.3926 88.9907 26.4132C85.7784 26.8819 82.884 28.4748 80.8101 30.7904L75.9943 36.1706C75.9843 36.1791 75.9727 36.1871 75.9642 36.196C74.7848 37.2336 75.3891 39.5921 77.3156 41.4653C79.2405 43.3381 81.7562 44.0162 82.9356 42.9786C82.9456 42.9701 82.9541 42.9611 82.9646 42.9511L89.0154 38.7729L89.0181 38.7754Z" fill="url(#paint17_radial_3253_1753)"/>
<path style="mix-blend-mode:color-dodge" opacity="0.7" d="M89.5708 33.7201C91.807 30.4691 93.7431 26.1043 94.2477 26.2938C95.1348 26.6266 94.3585 31.9562 92.124 35.2077C90.156 38.0696 83.0495 43.0468 82.2494 42.576C81.4493 42.1051 87.6049 36.581 89.5724 33.7206L89.5708 33.7201Z" fill="url(#paint18_radial_3253_1753)"/>
<path d="M82.9421 35.5403C82.4346 35.986 81.9098 36.1397 81.4659 36.0305C81.453 36.0267 81.0332 35.9297 81.0203 35.9259C80.574 35.798 81.1297 35.642 80.9619 34.9986C80.624 33.703 81.1916 31.9129 82.2284 31.0001C82.7413 30.5494 82.2946 30.1067 82.7424 30.2252C82.7553 30.229 83.2375 30.3708 83.2503 30.3747C83.6902 30.5056 84.0436 30.9058 84.2103 31.5423C84.5481 32.8379 83.9805 34.628 82.9437 35.5408L82.9421 35.5403Z" fill="url(#paint19_linear_3253_1753)"/>
<path d="M80.9488 35.892C81.9242 36.1529 83.1111 35.0973 83.5999 33.5341C84.0887 31.971 83.6943 30.4922 82.7189 30.2313C81.7436 29.9703 80.5566 31.026 80.0678 32.5891C79.579 34.1523 79.9734 35.631 80.9488 35.892Z" fill="url(#paint20_linear_3253_1753)"/>
<path d="M82.3303 34.9677C81.4879 35.7088 80.583 35.4576 80.3077 34.4052C80.0323 33.3527 80.4949 31.9002 81.3373 31.1591C82.1798 30.418 83.0846 30.6692 83.36 31.7216C83.6337 32.7736 83.1727 34.2265 82.3303 34.9677Z" fill="url(#paint21_linear_3253_1753)"/>
<path style="mix-blend-mode:screen" d="M82.4874 34.3429C81.8541 34.9004 81.1724 34.7106 80.9656 33.9196C80.7588 33.1285 81.1059 32.0335 81.7392 31.476C82.3724 30.9186 83.0542 31.1083 83.261 31.8993C83.4678 32.6904 83.1206 33.7854 82.4874 34.3429Z" fill="url(#paint22_linear_3253_1753)"/>
<path d="M80.6664 34.5487C80.3927 33.4968 80.8537 32.0438 81.6961 31.3027C82.0843 30.9608 82.4856 30.831 82.833 30.8918C82.4255 30.6164 81.8689 30.6885 81.3376 31.1567C80.4952 31.8978 80.0342 33.3508 80.3079 34.4027C80.4562 34.9698 80.7864 35.3041 81.1921 35.3756C80.954 35.2146 80.7674 34.9361 80.6648 34.5483L80.6664 34.5487Z" fill="url(#paint23_linear_3253_1753)"/>
<path style="mix-blend-mode:color-dodge" d="M83.7987 31.4173C83.637 30.797 83.1935 30.3962 82.899 30.2905C83.235 30.4758 83.5557 30.8728 83.6934 31.3991C84.0313 32.6947 83.4637 34.4848 82.4269 35.3976C81.886 35.8727 81.2707 35.9814 80.8086 35.8275C81.2493 36.0275 81.9164 35.9588 82.5338 35.4163C83.5706 34.5035 84.1382 32.7134 83.8003 31.4177L83.7987 31.4173Z" fill="url(#paint24_radial_3253_1753)"/>
<path style="mix-blend-mode:color-dodge" d="M86.2761 30.8729C90.6243 28.5897 96.3969 26.7041 96.1824 26.1337C95.8052 25.1297 88.9933 25.8667 84.6451 28.1499C80.8171 30.16 77.5259 33.6987 78.0878 34.6151C78.6497 35.5315 82.4486 32.8815 86.2766 30.8714L86.2761 30.8729Z" fill="url(#paint25_radial_3253_1753)"/>
<path d="M74.3155 34.9466C74.3155 34.9466 73.7325 36.2982 73.7402 36.4525C73.7479 36.6068 73.8936 36.9917 74.024 37.0662C74.1525 37.1407 74.9426 36.7097 75.0097 36.5997C75.0769 36.4897 75.3032 34.9307 75.3032 34.9307L74.3136 34.9466H74.3155Z" fill="#532C00"/>
<path d="M82.5843 31.5378L83.7657 31.1494C83.8136 31.2328 83.9939 31.5432 84.1454 31.6425C84.3314 31.7631 85.0045 31.9582 85.1867 32.0221C85.3095 32.0646 85.2922 32.2172 85.2922 32.2172L82.523 32.375C82.523 32.375 82.5153 31.8465 82.5843 31.5378Z" fill="#532C00"/>
<path d="M75.5354 23.7842L74.1584 35.0541C74.1584 35.0541 74.9275 35.2581 75.4107 35.0452C75.4107 35.0452 78.1531 26.9874 78.3871 26.1432C78.3871 26.1432 82.2149 26.5955 82.8574 26.4642C82.8574 26.4642 82.5237 31.3773 82.516 31.5724C82.516 31.5724 83.473 31.356 83.8604 31.3063C83.8604 31.3063 84.7119 25.1091 84.6237 24.9406C84.5335 24.7739 81.2465 24.2595 81.2465 24.2595L75.5373 23.7842H75.5354Z" fill="#EB8F3A"/>
<path d="M71.7098 23.5318L71.0444 23.3455C70.68 23.2444 70.2945 23.4342 70.1852 23.7712L70.0605 24.1543L70.3348 24.2306L70.4594 23.8475C70.5227 23.6506 70.749 23.5389 70.9619 23.5992L71.6274 23.7854C71.8402 23.8439 71.961 24.0532 71.8958 24.2501L71.7712 24.6332L72.0454 24.7095L72.1701 24.3264C72.2794 23.9894 72.0742 23.6329 71.7098 23.5318Z" fill="#361900"/>
<path d="M69.9721 23.8981L69.9028 24.1104L70.483 24.2723L70.5523 24.0601L69.9721 23.8981Z" fill="#FFF4C5"/>
<path d="M71.9935 23.9568C71.9647 23.9817 71.934 24.0012 71.9053 24.0154C71.8324 24.0509 71.771 24.0562 71.771 24.0562C71.771 24.0562 71.4834 24.4446 71.3894 24.4783C71.2954 24.512 70.9291 24.253 70.8563 24.1927C70.7834 24.1307 70.4593 23.8025 70.4017 23.6411C70.3442 23.4797 71.0289 22.5361 71.0289 22.5361L72.168 23.0097C72.168 23.0097 72.097 23.8682 71.9935 23.9586V23.9568Z" fill="#FFC5C5"/>
<path d="M71.9043 24.0154C71.8315 24.0509 71.7701 24.0562 71.7701 24.0562C71.7701 24.0562 71.7759 23.8487 71.7567 23.8309C71.7375 23.8132 71.6819 23.6624 71.6819 23.6624C71.6819 23.6624 71.8391 23.4389 71.8602 23.4496C71.8813 23.4602 71.9024 23.5897 71.9024 23.5897L71.8468 23.7618C71.8468 23.7618 71.9005 23.9143 71.9043 24.0154Z" fill="#FF8A8C"/>
<path d="M67.5699 23.812L66.3017 27.6969C66.2436 27.8751 66.3526 28.0631 66.5452 28.1169L72.6019 29.8082C72.7945 29.862 72.9979 29.7611 73.056 29.5829L74.3242 25.698C74.3824 25.5198 74.2734 25.3318 74.0807 25.278L68.0241 23.5867C67.8314 23.533 67.6281 23.6338 67.5699 23.812Z" fill="#774206"/>
<path d="M73.2986 28.8403L73.057 29.5835C72.9995 29.7609 72.7962 29.8619 72.6025 29.8087L66.5443 28.1167C66.3525 28.0634 66.2432 27.8754 66.3007 27.6963L66.5424 26.9531L73.2967 28.8385L73.2986 28.8403Z" fill="#532C00"/>
<path d="M70.7589 27.8698L69.2388 27.4453L69.037 28.0634L70.5571 28.4878L70.7589 27.8698Z" fill="#FFF4C5"/>
<path d="M69.0375 23.871L68.5657 23.7393L67.0868 28.2694L67.5586 28.4012L69.0375 23.871Z" fill="#361900"/>
<path d="M73.5355 25.1278L73.0637 24.9961L71.5849 29.5263L72.0567 29.658L73.5355 25.1278Z" fill="#361900"/>
<path d="M72.0635 23.7626C72.0175 23.7041 71.96 23.6545 71.8948 23.6137C71.8545 23.5888 71.8104 23.5675 71.7643 23.5498C71.7222 23.6048 71.6819 23.6615 71.6819 23.6615C71.6819 23.6615 71.7375 23.8123 71.7567 23.83C71.7605 23.8336 71.7624 23.8425 71.7643 23.8549C71.8219 23.8992 71.8641 23.956 71.889 24.0198C71.9159 24.0908 71.9197 24.1724 71.8948 24.2504L71.7701 24.6335L72.0443 24.7098L72.169 24.3267C72.2342 24.1262 72.1882 23.9187 72.0616 23.7626H72.0635Z" fill="#361900"/>
<path d="M71.6895 24.3796L71.6202 24.5918L72.2004 24.7538L72.2697 24.5415L71.6895 24.3796Z" fill="#FFF4C5"/>
<path d="M89.494 15.3227L89.9351 16.3319L89.2639 16.7434L88.6847 16.1723L89.1584 15.2979L89.494 15.3227Z" fill="#FCB0B1"/>
<path d="M87.8888 7.19025C87.5992 7.51128 87.0603 7.63012 86.6096 7.63899C86.159 7.64786 85.716 7.53257 85.2883 7.40309C84.8606 7.27184 84.4349 7.12462 83.9881 7.06254C83.1289 6.94548 82.2506 7.16009 81.4604 7.49355C82.1969 7.77024 82.8834 8.14271 83.5661 8.5205C82.9026 8.96392 82.2678 9.54569 81.7232 10.1097C82.5037 9.90219 83.2919 10.1594 84.0705 10.3758C84.8491 10.5922 85.6009 10.8955 86.3987 11.0409C87.1965 11.1863 88.0729 11.1597 88.7556 10.7536L87.8888 7.18847V7.19025Z" fill="#EB8F3A"/>
<path d="M88.3107 7.12012L92.2632 27.4145C92.1232 27.4358 91.9813 27.4588 91.8413 27.4819L87.8888 7.19106L88.3126 7.12012H88.3107Z" fill="#2B3990"/>
<path d="M88.5712 15.9204L89.0257 15.0832L90.3816 15.0566C90.3816 15.0566 90.4698 15.2358 90.255 15.3245C90.0402 15.4131 89.5761 15.4735 89.5761 15.4735C89.5761 15.4735 89.1868 16.3851 88.7995 16.3018C88.4101 16.2184 88.5712 15.9204 88.5712 15.9204Z" fill="#FFC5C5"/>
<path d="M90.2232 15.4502C90.2232 15.4502 90.3901 15.6418 90.346 15.7783C90.3019 15.9149 89.5271 16.0089 89.5271 16.0089L89.4465 15.844C89.4465 15.844 90.0027 15.3668 90.2213 15.4502H90.2232Z" fill="#FFC5C5"/>
<path d="M90.1547 15.1387C90.1547 15.1387 90.3216 15.3302 90.2775 15.4668C90.2334 15.6034 89.4586 15.6974 89.4586 15.6974L89.3781 15.5324C89.3781 15.5324 89.9342 15.0553 90.1528 15.1387H90.1547Z" fill="#FFC5C5"/>
<path d="M90.2507 15.7933C90.2507 15.7933 90.4003 15.9636 90.36 16.0842C90.3216 16.2066 89.6313 16.29 89.6313 16.29L89.5603 16.1427C89.5603 16.1427 90.0551 15.7171 90.2507 15.7933Z" fill="#FFC5C5"/>
<path d="M90.2314 16.1497C90.2314 16.1497 90.3311 16.3111 90.2793 16.4087C90.2275 16.5062 89.6369 16.4867 89.6369 16.4867L89.5985 16.3537C89.5985 16.3537 90.078 16.0611 90.2314 16.148V16.1497Z" fill="#FFC5C5"/>
<path d="M80.0399 17.476C80.0399 17.476 80.2374 17.5753 80.5539 17.7207C81.4782 18.15 83.4113 18.9925 84.3223 18.9765C85.5439 18.9552 89.5271 16.9811 89.5271 16.9811L89.3257 16.6051L88.6219 15.2872C88.6219 15.2872 85.028 17.3021 84.5351 17.0982C84.0423 16.8942 80.4714 15.25 80.4714 15.25L80.0399 17.4742V17.476Z" fill="#2B3990"/>
<path d="M80.413 17.322L80.553 17.7211C81.4773 18.1503 83.4104 18.9928 84.3214 18.9769C85.543 18.9556 89.5261 16.9815 89.5261 16.9815L89.3248 16.6055C88.7149 16.9176 85.3474 18.615 84.3904 18.6026C83.3356 18.5884 80.413 17.322 80.413 17.322Z" fill="#F0EAD2"/>
<path d="M70.6331 22.4862L72.0445 23.1513L72.3782 23.3092L74.3478 19.5844L77.1995 17.754L77.2129 17.3514L77.2743 15.3613C77.2743 15.3613 73.3045 17.5004 72.7503 18.5202L70.635 22.4844L70.6331 22.4862Z" fill="#2B3990"/>
<path d="M72.0444 23.1515L72.3781 23.3093L74.3477 19.5846L77.1994 17.7542L77.2128 17.3516C76.8369 17.5821 74.0293 19.3186 73.9679 19.4835C73.9181 19.6236 72.6025 22.105 72.0444 23.1515Z" fill="#F0EAD2"/>
<path d="M81.2441 24.2598L79.0904 24.1995L78.9351 24.1942L78.5631 24.1835L78.3636 24.1782L75.3566 24.0913L75.9798 17.0658C75.9798 17.0658 76.0892 15.5209 78.0913 15.0793C78.1086 15.0775 78.1277 15.0722 78.1469 15.0669C78.2006 15.0562 78.2524 15.0456 78.308 15.0385C78.4116 15.019 78.5151 15.0066 78.6263 14.9941L79.2899 15.0154L79.8652 15.0332C79.8652 15.0332 80.0608 15.0544 80.3197 15.1751C80.3677 15.1946 80.4137 15.2212 80.4655 15.2495V15.2531C80.5173 15.2815 80.5652 15.3134 80.617 15.3471C81.0734 15.6699 81.5624 16.3102 81.5624 17.5837C81.5586 19.9516 81.2402 24.2616 81.2402 24.2616L81.2441 24.2598Z" fill="#2B3990"/>
<path d="M78.5375 18.5927C78.5203 18.6902 78.4206 18.7576 78.3132 18.7417C78.2077 18.7257 78.1348 18.6335 78.1521 18.5341C78.1693 18.4366 78.269 18.3692 78.3764 18.3852C78.4819 18.4011 78.5548 18.4933 78.5375 18.5927Z" fill="#F0EAD2"/>
<path d="M78.4435 20.0634C78.4263 20.1609 78.3266 20.2283 78.2192 20.2124C78.1137 20.1964 78.0408 20.1042 78.0581 20.0048C78.0753 19.9073 78.1751 19.8399 78.2825 19.8559C78.3879 19.8718 78.4608 19.9641 78.4435 20.0634Z" fill="#F0EAD2"/>
<path d="M78.3536 21.6981C78.3363 21.7957 78.2366 21.8631 78.1292 21.8471C78.0237 21.8312 77.9508 21.7389 77.9681 21.6396C77.9854 21.5421 78.0851 21.4747 78.1925 21.4906C78.298 21.5066 78.3708 21.5988 78.3536 21.6981Z" fill="#F0EAD2"/>
<path d="M79.6426 17.7227L81.1116 17.8202C81.1116 17.8202 81.0483 19.0529 81.0138 19.1132C80.9793 19.1735 80.3694 19.4006 80.1949 19.3527C80.0185 19.3048 79.5697 18.9944 79.5697 18.9944L79.6426 17.7227Z" fill="#F0EAD2"/>
<path d="M78.2576 14.1621L78.6296 15.3469L80.0392 15.1873L79.7956 14.4512L78.2576 14.1621Z" fill="#FCB0B1"/>
<path d="M79.8189 11.9463L80.4345 14.4685L78.7411 14.6565L78.1236 14.135L77.6442 12.521L79.8189 11.9463Z" fill="#FFC5C5"/>
<path d="M77.7479 13.8222C77.7479 13.8222 77.6002 13.3344 77.8975 13.2652C78.1948 13.1961 78.375 13.4905 78.375 13.4905L78.0432 12.6391C78.0432 12.6391 80.1739 12.719 80.1144 11.7381C80.055 10.7573 79.3377 10.8193 79.0366 10.9063C78.7356 10.9932 78.6147 11.3319 78.7567 11.5944C78.7567 11.5944 77.3644 11.6015 77.2378 11.9456C77.1112 12.2897 77.3318 12.5966 77.3318 12.5966C77.3318 12.5966 77.0422 12.6391 77.0364 13.0293C77.0307 13.4196 77.5485 13.7353 77.746 13.8222H77.7479Z" fill="#532C00"/>
<path d="M78.5867 13.6776C78.5867 13.6776 78.0248 12.8139 77.6566 13.3353C77.3977 13.7007 78.1245 14.1335 78.1245 14.1335L78.5867 13.6759V13.6776Z" fill="#FFC5C5"/>
<path d="M80.5568 13.3944L80.0255 13.5292L79.9412 12.6494L80.5568 13.3944Z" fill="#FFC5C5"/>
<path d="M78.5636 24.1839L78.3661 24.1768L79.2061 15.2374L79.323 15.2002L78.5636 24.1839Z" fill="#F0EAD2"/>
<path d="M78.1483 15.0649L78.7505 16.0191L79.2587 15.2352L79.7017 16.0777L80.4707 15.2511H80.4688L80.3231 15.1731C80.0642 15.0525 79.8685 15.0312 79.8685 15.0312L79.2932 15.0135L78.6297 14.9922C78.5184 15.0046 78.413 15.0188 78.3113 15.0348C78.2557 15.0436 78.2001 15.0543 78.1483 15.0649Z" fill="#F0EAD2"/>
<path d="M79.8673 15.0314L79.292 15.0137L79.6871 15.9023L80.3237 15.1733C80.0648 15.0527 79.8692 15.0314 79.8692 15.0314H79.8673Z" fill="#2B3990"/>
<path d="M78.3118 15.0356L78.7452 15.8603L79.2937 15.0125L78.6301 14.9912C78.5189 15.0036 78.4134 15.0178 78.3118 15.0338V15.0356Z" fill="#2B3990"/>
<path d="M79.292 15.0137L79.012 15.4482L79.1616 15.6469C78.9066 16.2393 78.4329 16.7572 77.8269 17.0605C77.3551 17.2964 76.8239 17.4081 76.331 17.6032C75.8381 17.7983 75.3568 18.1123 75.1765 18.5788L75.3875 19.3237L76.3521 19.0488C76.5228 18.6231 76.9447 18.3304 77.3704 18.1034C77.7962 17.8764 78.2545 17.6795 78.5863 17.3461C79.0331 16.8991 79.2172 16.2641 79.3553 15.6682L79.4972 15.4713L79.2939 15.0137H79.292Z" fill="#EB8F3A"/>
<path d="M75.38 38.3827L69.8432 39.85L69.7029 39.2853L71.27 37.9073C71.4897 37.7137 71.7694 37.5412 72.0916 37.3993L76.1127 35.6287C76.9784 35.2486 78.0344 35.1415 78.821 35.3558L78.9514 35.9028L75.3816 38.3832L75.38 38.3827Z" fill="url(#paint26_linear_3253_1753)"/>
<path d="M75.5222 38.9472L69.8451 39.8497L71.4122 38.4718C71.6319 38.2781 71.9116 38.1056 72.2338 37.9638L76.2549 36.1931C77.1206 35.813 78.1767 35.7059 78.9632 35.9203L75.5222 38.9472Z" fill="#4888E8"/>
<path style="mix-blend-mode:color-dodge" d="M71.4009 38.5407C71.6207 38.347 71.9003 38.1745 72.2225 38.0327L76.2437 36.262C77.0701 35.8981 78.0716 35.7846 78.8444 35.9621L78.9384 35.8802C78.1519 35.6659 77.0959 35.773 76.2302 36.1531L72.209 37.9238C71.8868 38.0656 71.6066 38.2396 71.3874 38.4317L69.8204 39.8097L69.9875 39.7824L71.4015 38.5392L71.4009 38.5407Z" fill="url(#paint27_radial_3253_1753)"/>
<path d="M80.5483 43.4105L78.6849 48.4527L79.2873 48.6107L80.8543 47.2327C81.0741 47.0391 81.2761 46.7894 81.4445 46.4985L83.5581 42.8717C84.0139 42.0909 84.1816 41.1195 83.9893 40.3836L83.4046 40.2359L80.5483 43.4105Z" fill="url(#paint28_linear_3253_1753)"/>
<path d="M79.9459 43.252L78.6849 48.4521L80.252 47.0742C80.4717 46.8806 80.6737 46.6308 80.8422 46.34L82.9557 42.7132C83.4115 41.9324 83.5792 40.961 83.3869 40.2251L79.9459 43.252Z" fill="#4888E8"/>
<path style="mix-blend-mode:color-dodge" d="M80.8896 46.3875L83.0031 42.7607C83.4589 41.9799 83.6266 41.0085 83.4343 40.2726L83.4142 40.2896C83.539 41.0005 83.3628 41.8792 82.9447 42.5974L80.8312 46.2242C80.6611 46.5146 80.4607 46.7648 80.241 46.9584L78.7986 48.2276L78.7323 48.4997L80.2994 47.1217C80.5191 46.9281 80.7211 46.6783 80.8896 46.3875Z" fill="url(#paint29_radial_3253_1753)"/>
<mask id="mask0_3253_1753" style="mask-type:alpha" maskUnits="userSpaceOnUse" x="3" y="5" width="94" height="56">
<rect x="3" y="5.5498" width="94" height="54.5745" fill="#D9D9D9"/>
</mask>
<g mask="url(#mask0_3253_1753)">
</g>
<defs>
<linearGradient id="paint0_linear_3253_1753" x1="75.3567" y1="43.2207" x2="71.2148" y2="47.4776" gradientUnits="userSpaceOnUse">
<stop stop-color="#FF9E6E"/>
<stop offset="0.15" stop-color="#FF866F"/>
<stop offset="0.36" stop-color="#FF6970"/>
<stop offset="0.58" stop-color="#FF5571"/>
<stop offset="0.79" stop-color="#FF4971"/>
<stop offset="1" stop-color="#FF4572"/>
</linearGradient>
<linearGradient id="paint1_linear_3253_1753" x1="75.3508" y1="43.2266" x2="71.2745" y2="47.416" gradientUnits="userSpaceOnUse">
<stop stop-color="#FFA470"/>
<stop offset="0.07" stop-color="#FF9970"/>
<stop offset="0.32" stop-color="#FF7B72"/>
<stop offset="0.56" stop-color="#FF6573"/>
<stop offset="0.79" stop-color="#FF5873"/>
<stop offset="1" stop-color="#FF5474"/>
</linearGradient>
<linearGradient id="paint2_linear_3253_1753" x1="75.3463" y1="43.2302" x2="71.3357" y2="47.3522" gradientUnits="userSpaceOnUse">
<stop stop-color="#FFAB72"/>
<stop offset="0.27" stop-color="#FF8C73"/>
<stop offset="0.53" stop-color="#FF7474"/>
<stop offset="0.78" stop-color="#FF6674"/>
<stop offset="1" stop-color="#FF6275"/>
</linearGradient>
<linearGradient id="paint3_linear_3253_1753" x1="75.3406" y1="43.236" x2="71.3955" y2="47.2905" gradientUnits="userSpaceOnUse">
<stop stop-color="#FFB174"/>
<stop offset="0.18" stop-color="#FF9E74"/>
<stop offset="0.49" stop-color="#FF8576"/>
<stop offset="0.77" stop-color="#FF7676"/>
<stop offset="1" stop-color="#FF7177"/>
</linearGradient>
<linearGradient id="paint4_linear_3253_1753" x1="75.3351" y1="43.2397" x2="71.4558" y2="47.2267" gradientUnits="userSpaceOnUse">
<stop stop-color="#FFB876"/>
<stop offset="0.09" stop-color="#FFB076"/>
<stop offset="0.44" stop-color="#FF9577"/>
<stop offset="0.76" stop-color="#FF8478"/>
<stop offset="1" stop-color="#FF7F79"/>
</linearGradient>
<linearGradient id="paint5_linear_3253_1753" x1="75.3294" y1="43.2457" x2="71.5157" y2="47.1653" gradientUnits="userSpaceOnUse">
<stop stop-color="#FFBE78"/>
<stop offset="0.36" stop-color="#FFA679"/>
<stop offset="0.73" stop-color="#FF947A"/>
<stop offset="1" stop-color="#FF8E7B"/>
</linearGradient>
<linearGradient id="paint6_linear_3253_1753" x1="75.3227" y1="43.2507" x2="71.5758" y2="47.1016" gradientUnits="userSpaceOnUse">
<stop stop-color="#FFC57B"/>
<stop offset="0.25" stop-color="#FFB77B"/>
<stop offset="0.7" stop-color="#FFA37B"/>
<stop offset="1" stop-color="#FF9C7C"/>
</linearGradient>
<linearGradient id="paint7_linear_3253_1753" x1="75.3175" y1="43.256" x2="71.6351" y2="47.0406" gradientUnits="userSpaceOnUse">
<stop stop-color="#FFCB7D"/>
<stop offset="0.03" stop-color="#FFC97D"/>
<stop offset="0.62" stop-color="#FFB37D"/>
<stop offset="1" stop-color="#FFAB7E"/>
</linearGradient>
<linearGradient id="paint8_linear_3253_1753" x1="75.3123" y1="43.2609" x2="71.6967" y2="46.9769" gradientUnits="userSpaceOnUse">
<stop stop-color="#FFD27F"/>
<stop offset="0.52" stop-color="#FFC27F"/>
<stop offset="1" stop-color="#FFB980"/>
</linearGradient>
<linearGradient id="paint9_linear_3253_1753" x1="75.3071" y1="43.2649" x2="71.756" y2="46.9146" gradientUnits="userSpaceOnUse">
<stop stop-color="#FFD881"/>
<stop offset="0.25" stop-color="#FFD281"/>
<stop offset="1" stop-color="#FFC882"/>
</linearGradient>
<linearGradient id="paint10_linear_3253_1753" x1="75.3013" y1="43.2701" x2="71.817" y2="46.851" gradientUnits="userSpaceOnUse">
<stop stop-color="#FFDF83"/>
<stop offset="1" stop-color="#FFD683"/>
</linearGradient>
<linearGradient id="paint11_linear_3253_1753" x1="75.2946" y1="43.2757" x2="71.876" y2="46.7892" gradientUnits="userSpaceOnUse">
<stop stop-color="#FFE585"/>
<stop offset="1" stop-color="#FFE585"/>
</linearGradient>
<linearGradient id="paint12_linear_3253_1753" x1="77.0999" y1="41.6657" x2="75.4929" y2="43.2959" gradientUnits="userSpaceOnUse">
<stop stop-color="#273B98"/>
<stop offset="0.23" stop-color="#2E2BA2"/>
<stop offset="0.4" stop-color="#361CAC"/>
<stop offset="0.77" stop-color="#440B88"/>
<stop offset="1" stop-color="#4E0070"/>
</linearGradient>
<linearGradient id="paint13_linear_3253_1753" x1="75.2713" y1="38.4788" x2="80.0179" y2="43.8741" gradientUnits="userSpaceOnUse">
<stop stop-color="#676FAE"/>
<stop offset="0.05" stop-color="#747CB7"/>
<stop offset="0.11" stop-color="#8B92C8"/>
<stop offset="0.23" stop-color="#AFB6E5"/>
<stop offset="0.35" stop-color="#949BCF"/>
<stop offset="0.38" stop-color="#8D94C9"/>
<stop offset="0.55" stop-color="#5E67A8"/>
<stop offset="0.61" stop-color="#616AAA"/>
<stop offset="0.67" stop-color="#6C74B2"/>
<stop offset="0.72" stop-color="#7D85BE"/>
<stop offset="0.78" stop-color="#979ED1"/>
<stop offset="1" stop-color="#7179B5"/>
</linearGradient>
<linearGradient id="paint14_linear_3253_1753" x1="82.1982" y1="29.547" x2="89.7415" y2="38.1212" gradientUnits="userSpaceOnUse">
<stop offset="0.01" stop-color="#CED3F4"/>
<stop offset="0.07" stop-color="#D8DCF6"/>
<stop offset="0.16" stop-color="#F3F4FC"/>
<stop offset="0.2" stop-color="white"/>
<stop offset="0.27" stop-color="#F5F6FF"/>
<stop offset="0.36" stop-color="#E5E9FF"/>
<stop offset="0.39" stop-color="#DADFFA"/>
<stop offset="0.47" stop-color="#C2C8EE"/>
<stop offset="0.55" stop-color="#B4BAE7"/>
<stop offset="0.61" stop-color="#AFB6E5"/>
<stop offset="0.78" stop-color="#B9C0EA"/>
<stop offset="1" stop-color="#CED3F4"/>
</linearGradient>
<linearGradient id="paint15_linear_3253_1753" x1="91.9761" y1="25.6827" x2="94.1455" y2="31.6304" gradientUnits="userSpaceOnUse">
<stop stop-color="#6DABF3"/>
<stop offset="0.34" stop-color="#165DE7"/>
<stop offset="0.5" stop-color="#2C28D6"/>
<stop offset="0.72" stop-color="#2854F2"/>
<stop offset="1" stop-color="#6D82F3"/>
</linearGradient>
<linearGradient id="paint16_linear_3253_1753" x1="95.6858" y1="28.8551" x2="87.3863" y2="25.5263" gradientUnits="userSpaceOnUse">
<stop stop-color="#6D9BF3"/>
<stop offset="0.117708" stop-color="#6DABF3"/>
<stop offset="0.5" stop-color="#607EE8"/>
<stop offset="0.7199" stop-color="#687EEF"/>
<stop offset="0.72" stop-color="#6987F0"/>
<stop offset="1" stop-color="#4154FF"/>
</linearGradient>
<radialGradient id="paint17_radial_3253_1753" cx="0" cy="0" r="1" gradientUnits="userSpaceOnUse" gradientTransform="translate(86.2988 33.5501) rotate(44.216) scale(8.12874 13.0197)">
<stop offset="0.53" stop-color="white"/>
<stop offset="0.71" stop-color="#FAFAFF"/>
<stop offset="0.92" stop-color="#ECEFFF"/>
<stop offset="1" stop-color="#E5E9FF"/>
</radialGradient>
<radialGradient id="paint18_radial_3253_1753" cx="0" cy="0" r="1" gradientUnits="userSpaceOnUse" gradientTransform="translate(82.5941 29.6785) rotate(-149.532) scale(2.27643 9.55471)">
<stop stop-color="#AFB6E5"/>
<stop offset="0.07" stop-color="#8C92B8"/>
<stop offset="0.14" stop-color="#6C708D"/>
<stop offset="0.22" stop-color="#4E5267"/>
<stop offset="0.31" stop-color="#363847"/>
<stop offset="0.4" stop-color="#22232D"/>
<stop offset="0.5" stop-color="#131318"/>
<stop offset="0.62" stop-color="#08080A"/>
<stop offset="0.76" stop-color="#010102"/>
<stop offset="1"/>
</radialGradient>
<linearGradient id="paint19_linear_3253_1753" x1="83.5221" y1="30.4106" x2="81.9332" y2="36.2271" gradientUnits="userSpaceOnUse">
<stop stop-color="#676FAE"/>
<stop offset="0.05" stop-color="#747CB7"/>
<stop offset="0.11" stop-color="#8B92C8"/>
<stop offset="0.23" stop-color="#AFB6E5"/>
<stop offset="0.35" stop-color="#949BCF"/>
<stop offset="0.38" stop-color="#8D94C9"/>
<stop offset="0.55" stop-color="#5E67A8"/>
<stop offset="0.61" stop-color="#616AAA"/>
<stop offset="0.67" stop-color="#6C74B2"/>
<stop offset="0.72" stop-color="#7D85BE"/>
<stop offset="0.78" stop-color="#979ED1"/>
<stop offset="1" stop-color="#7179B5"/>
</linearGradient>
<linearGradient id="paint20_linear_3253_1753" x1="80.3002" y1="31.5589" x2="83.1599" y2="34.8094" gradientUnits="userSpaceOnUse">
<stop offset="0.04" stop-color="#929AD6"/>
<stop offset="0.36" stop-color="#AFB6E5"/>
<stop offset="0.61" stop-color="#949CD3"/>
<stop offset="1" stop-color="#646EB5"/>
</linearGradient>
<linearGradient id="paint21_linear_3253_1753" x1="81.3674" y1="31.3631" x2="82.3128" y2="35.3843" gradientUnits="userSpaceOnUse">
<stop stop-color="#66CCFF"/>
<stop offset="0.13" stop-color="#62BCFD"/>
<stop offset="0.38" stop-color="#5893F9"/>
<stop offset="0.53" stop-color="#5277F7"/>
<stop offset="1" stop-color="#3E34C0"/>
</linearGradient>
<linearGradient id="paint22_linear_3253_1753" x1="82.5428" y1="30.1983" x2="82.0951" y2="33.6904" gradientUnits="userSpaceOnUse">
<stop stop-color="#5277F7"/>
<stop offset="1"/>
</linearGradient>
<linearGradient id="paint23_linear_3253_1753" x1="80.5524" y1="35.1928" x2="81.8048" y2="30.6046" gradientUnits="userSpaceOnUse">
<stop stop-color="#676FAE"/>
<stop offset="0.05" stop-color="#747CB7"/>
<stop offset="0.11" stop-color="#8B92C8"/>
<stop offset="0.23" stop-color="#AFB6E5"/>
<stop offset="0.35" stop-color="#949BCF"/>
<stop offset="0.38" stop-color="#8D94C9"/>
<stop offset="0.55" stop-color="#5E67A8"/>
<stop offset="0.61" stop-color="#616AAA"/>
<stop offset="0.67" stop-color="#6C74B2"/>
<stop offset="0.72" stop-color="#7D85BE"/>
<stop offset="0.78" stop-color="#979ED1"/>
<stop offset="1" stop-color="#7179B5"/>
</linearGradient>
<radialGradient id="paint24_radial_3253_1753" cx="0" cy="0" r="1" gradientUnits="userSpaceOnUse" gradientTransform="translate(82.2058 33.3298) rotate(44.216) scale(2.33014 2.33261)">
<stop stop-color="white"/>
<stop offset="1"/>
</radialGradient>
<radialGradient id="paint25_radial_3253_1753" cx="0" cy="0" r="1" gradientUnits="userSpaceOnUse" gradientTransform="translate(83.5195 24.0908) rotate(58.4651) scale(2.05941 9.29792)">
<stop stop-color="#972A74"/>
<stop offset="0.02" stop-color="#8C276B"/>
<stop offset="0.11" stop-color="#671C4F"/>
<stop offset="0.21" stop-color="#471336"/>
<stop offset="0.32" stop-color="#2D0C22"/>
<stop offset="0.43" stop-color="#180613"/>
<stop offset="0.57" stop-color="#0A0308"/>
<stop offset="0.73" stop-color="#020001"/>
<stop offset="1"/>
</radialGradient>
<linearGradient id="paint26_linear_3253_1753" x1="70.7109" y1="39.2431" x2="79.4752" y2="34.7331" gradientUnits="userSpaceOnUse">
<stop stop-color="#5129C2"/>
<stop offset="0.16" stop-color="#5C40D8"/>
<stop offset="0.2" stop-color="#6047DE"/>
<stop offset="1" stop-color="#6190EC"/>
</linearGradient>
<radialGradient id="paint27_radial_3253_1753" cx="0" cy="0" r="1" gradientUnits="userSpaceOnUse" gradientTransform="translate(76.0926 38.661) rotate(44.216) scale(3.42174 3.42536)">
<stop stop-color="white"/>
<stop offset="1"/>
</radialGradient>
<linearGradient id="paint28_linear_3253_1753" x1="80.935" y1="45.1505" x2="83.1149" y2="40.6756" gradientUnits="userSpaceOnUse">
<stop stop-color="#5129C2"/>
<stop offset="0.16" stop-color="#5C40D8"/>
<stop offset="0.2" stop-color="#6047DE"/>
<stop offset="0.695833" stop-color="#6D82F3"/>
<stop offset="0.8" stop-color="#5988E3"/>
</linearGradient>
<radialGradient id="paint29_radial_3253_1753" cx="0" cy="0" r="1" gradientUnits="userSpaceOnUse" gradientTransform="translate(80.9916 42.4199) rotate(44.216) scale(3.41819 3.42181)">
<stop stop-color="white"/>
<stop offset="1"/>
</radialGradient>
</defs>
</svg>
