<svg width="23" height="13" viewBox="0 0 23 13" fill="none" xmlns="http://www.w3.org/2000/svg">
<g clip-path="url(#clip0_3203_7910)">
<path fill-rule="evenodd" clip-rule="evenodd" d="M1.41878 0H21.5812C22.3617 0 23 0.663879 23 1.47141V11.5305C23 12.3381 22.3599 13.0019 21.5812 13.0019H1.41878C0.640137 13 0 12.3381 0 11.5305V1.47141C0 0.661938 0.638265 0 1.41878 0ZM8.82902 2.81275V4.2861H7.6779V10.1892H5.72005V4.2861H4.55957V2.81275H8.82902ZM12.3535 2.81275L13.4728 10.1892H11.4738L11.3671 8.86531H10.6615L10.5548 10.1892H8.53141L9.52344 2.81275H12.3535ZM11.3147 7.55891C11.2211 6.72226 11.1238 5.68762 11.019 4.45304C10.8262 5.87009 10.7026 6.90473 10.6521 7.55891H11.3147ZM18.0885 2.81275L17.4035 6.07391L18.4404 10.1872H16.6342C16.4189 9.45155 16.2187 8.55473 16.0352 7.49485C15.9791 7.96655 15.908 8.46349 15.82 8.98567L15.6459 10.1892H13.7424L14.4555 6.07585L13.7424 2.81469H15.6347C15.674 3.01852 15.7414 3.35822 15.8368 3.83381C15.9136 4.19486 15.981 4.52874 16.0352 4.83351L16.4545 2.81469H18.0885V2.81275Z" fill="#555555"/>
</g>
<defs>
<clipPath id="clip0_3203_7910">
<rect width="23" height="13" fill="white"/>
</clipPath>
</defs>
</svg>
